<svg xmlns="http://www.w3.org/2000/svg" version="1.1" xmlns:xlink="http://www.w3.org/1999/xlink" xmlns:svgjs="http://svgjs.com/svgjs" width="512" height="512" x="0" y="0" viewBox="0 0 604.507 604.507" style="enable-background:new 0 0 512 512" xml:space="preserve"><g><g xmlns="http://www.w3.org/2000/svg"><path d="m125.264 541.065c-1.62 0-2.867 1.62-2.368 3.241 6.731 21.064 28.543 33.778 50.479 28.667 14.708-3.49 26.548-14.458 31.036-28.667.499-1.62-.748-3.241-2.368-3.241z" fill="#F4777C" data-original="#f4777c"></path><path d="m403.836 541.065c-1.62 0-2.867 1.62-2.368 3.241 6.731 21.064 28.543 33.778 50.479 28.667 14.708-3.49 26.548-14.458 31.036-28.667.499-1.62-.748-3.241-2.368-3.241z" fill="#F4777C" data-original="#f4777c"></path><path d="m590.174 510.528h-9.348c-1.994-106.817-30.163-206.904-79.895-283.059-25.427-39.013-55.091-69.674-88.246-91.112-24.305-15.829-49.732-26.05-75.906-30.911 6.98-11.093 11.218-25.676 11.218-42.004 0-35.522-20.067-63.442-45.743-63.442s-45.744 27.92-45.744 63.442c0 16.203 4.238 30.786 11.218 42.004-26.175 4.861-51.601 15.206-75.906 30.911-33.154 21.563-62.819 52.224-88.246 91.112-49.607 76.155-77.776 176.242-79.895 283.059h-9.348c-6.855 0-12.464 5.609-12.464 12.464s5.609 12.464 12.464 12.464h68.428c5.858 39.013 39.885 69.051 80.892 69.051s75.034-30.038 80.892-69.051h116.788c5.858 39.013 39.885 69.051 80.892 69.051s75.034-30.038 80.892-69.051h67.057c6.855 0 12.464-5.609 12.464-12.464s-5.609-12.464-12.464-12.464zm-287.92-485.6c9.847 0 20.815 16.453 20.815 38.514s-10.968 38.514-20.815 38.514-20.815-16.453-20.815-38.514 10.968-38.514 20.815-38.514zm-177.738 216.127c47.862-73.538 111.055-113.922 177.738-113.922s129.876 40.508 177.738 113.922c47.114 72.167 73.787 167.517 75.782 269.473h-507.164c1.994-101.956 28.792-197.181 75.906-269.473zm317.709 338.524c-26.548.125-49.607-18.198-55.465-44.123h111.055c-5.983 25.926-29.041 44.248-55.59 44.123zm-278.572 0c-26.548.125-49.607-18.198-55.465-44.123h111.055c-5.983 25.926-29.041 44.248-55.59 44.123z" fill="#000000" data-original="#000000"></path><path d="m367.939 397.978c0-8.102-11.841-18.571-34.525-24.056-3.989 7.478-8.351 15.331-13.087 23.432-5.733 9.847-18.447 13.212-28.293 7.478-3.116-1.745-5.733-4.362-7.478-7.478-3.365-5.733-8.102-14.084-13.087-23.432-22.809 5.484-34.775 15.954-34.775 24.18 0 13.087 28.044 27.67 65.686 27.67 37.39-.124 65.559-14.707 65.559-27.794z" fill="#F4777C" data-original="#f4777c"></path><path d="m355.6 342.513c19.693-39.137 29.291-66.184 29.291-82.387 0-44.995-37.018-81.64-82.512-81.64s-82.387 36.644-82.387 81.64c0 16.203 9.597 43.25 29.291 82.263-36.644 10.345-59.454 31.036-59.454 54.842 0 18.198 12.838 34.525 36.27 46.117 20.566 10.221 47.613 15.705 76.28 15.705s55.714-5.609 76.28-15.705c23.308-11.592 36.27-27.919 36.27-46.117-.25-23.683-22.934-44.249-59.329-54.718zm-110.681-82.388c0-31.285 25.801-56.711 57.459-56.711 31.783 0 57.584 25.427 57.584 56.711 0 7.852-4.362 29.166-33.902 85.13-6.357 12.09-13.586 25.177-21.438 38.763-.748 1.246-2.493 1.62-3.739.872-.374-.249-.623-.499-.872-.872-5.235-9.099-13.212-23.308-21.438-38.763-29.167-55.839-33.654-77.278-33.654-85.13zm57.335 174.123c-50.106 0-87.498-19.569-87.498-36.894 0-10.968 15.954-24.928 46.366-32.282 6.731 12.589 13.087 23.682 17.45 31.285 7.728 13.212 24.554 17.699 37.766 9.971 4.113-2.368 7.603-5.858 9.971-9.971 6.232-10.844 12.09-21.314 17.45-31.16 30.163 7.354 45.992 21.314 45.992 32.157 0 17.45-37.392 36.894-87.497 36.894z" fill="#000000" data-original="#000000"></path><path d="m340.768 249.032c-7.229-13.586-21.687-22.934-38.265-22.934-17.699 0-32.905 10.594-39.636 25.551-2.244 5.235-3.615 10.968-3.615 16.951 0 5.858 3.241 21.937 25.302 63.816 6.107 11.716 12.09 22.311 16.079 29.166.623.997 1.87 1.246 2.742.623.249-.125.499-.374.623-.623 5.858-10.221 11.342-19.943 16.079-29.041 22.061-41.879 25.427-57.958 25.427-63.816.125-7.104-1.62-13.835-4.736-19.693zm-38.265-4.113c8.351.125 15.082 7.105 14.832 15.455-.125 8.351-7.105 15.082-15.58 14.832-8.226-.125-14.832-6.98-14.832-15.206.124-8.351 7.104-15.081 15.58-15.081z" fill="#F4777C" data-original="#f4777c"></path><path d="m340.768 249.032c-4.861-16.826-20.441-29.166-38.888-29.041-19.195.125-35.149 13.71-38.888 31.783-.623 2.742-.872 5.484-.872 8.351.125 22.186 18.198 40.134 40.508 40.134 22.186-.125 40.01-18.322 39.76-40.508-.125-3.614-.623-7.229-1.62-10.719zm-38.888 26.299c-8.226-.125-14.832-6.98-14.832-15.206.125-8.476 7.105-15.331 15.58-15.206 8.351.125 15.082 7.105 14.832 15.455-.25 8.476-7.229 15.082-15.58 14.957z" fill="#000000" data-original="#000000"></path></g></g></svg>