<svg xmlns="http://www.w3.org/2000/svg" version="1.1" xmlns:xlink="http://www.w3.org/1999/xlink" xmlns:svgjs="http://svgjs.com/svgjs" width="512" height="512" x="0" y="0" viewBox="0 0 602.015 602.015" style="enable-background:new 0 0 512 512" xml:space="preserve"><g><g xmlns="http://www.w3.org/2000/svg"><path d="m422.429 346.171c1.339.316 2.681-.513 2.997-1.852.135-.571.064-1.172-.201-1.695-.828-1.646-1.862-3.181-3.078-4.566-6.314-7.162-17.777-10.487-34.081-9.915-6.189.28-11.433-4.511-11.713-10.7s4.511-11.433 10.7-11.713c.07-.003.141-.006.211-.008 14.949-.54 27.442 1.697 37.383 6.636 1.215.626 2.707.149 3.333-1.066.179-.347.273-.731.275-1.121v-87.28c0-1.377-1.116-2.493-2.493-2.493h-377.113c-1.377 0-2.493 1.116-2.493 2.493v123.065c-.002 1.372 1.108 2.486 2.48 2.488.198 0 .395-.023.587-.069 6.302-1.489 12.757-2.231 19.233-2.209 23.59 0 35.997 5.792 46.944 10.901 10.108 4.718 18.839 8.793 37.442 8.793s27.334-4.075 37.442-8.794c10.944-5.109 23.349-10.9 46.932-10.9s35.988 5.791 46.932 10.9c10.108 4.719 18.838 8.794 37.442 8.794 7.614.155 15.21-.796 22.551-2.823.295-.087.57-.228.813-.417 16.15-12.318 35.924-18.943 56.236-18.841 7.148-.006 14.272.797 21.239 2.392z" fill="#F4777C" data-original="#f4777c"></path><path d="m559.815 444.723c0-30.427-27.685-55.181-61.715-55.181-8.201-.024-16.338 1.447-24.012 4.339-7.823 2.965-16.46 2.965-24.283.001-7.675-2.893-15.812-4.364-24.013-4.34-34.03 0-61.715 24.754-61.715 55.181 0 15.284 6.92 45.244 20.144 72.932 13.226 27.693 28.766 44.225 41.571 44.225 8.201.023 16.339-1.447 24.013-4.338 7.823-2.966 16.461-2.966 24.283 0 7.674 2.892 15.811 4.362 24.012 4.338 12.803 0 28.344-16.532 41.57-44.225 13.226-27.689 20.145-57.648 20.145-72.932z" fill="#F4777C" data-original="#f4777c"></path><path d="m518.867 350.392c.154-.162.314-.314.468-.477 17.175-18.148 27.23-39.266 26.893-56.492-.134-6.882-5.823-12.353-12.705-12.218-.416.008-.831.037-1.244.087-18.094 2.175-38.994 14.145-55.911 32.02-.67.708-1.309 1.428-1.957 2.144v-115.602c-.015-2.154-.573-4.27-1.624-6.151l-65.157-114.84v-66.399c0-6.884-5.581-12.464-12.464-12.464h-315.922c-6.883 0-12.464 5.58-12.464 12.464v66.398l-65.157 114.841c-1.05 1.881-1.608 3.996-1.623 6.151v352.314c0 6.884 5.58 12.464 12.464 12.464h351.94c14.007 20.413 32.438 37.382 55.007 37.382 12.665.03 25.23-2.247 37.079-6.72 3.519-1.312 7.393-1.312 10.912 0 11.849 4.473 24.413 6.75 37.078 6.72 32.875 0 56.973-36.007 71.401-66.213 15.387-32.216 26.133-71.917 26.133-96.547.001-45.039-36.165-82.435-83.147-88.862zm-14.386 226.694c-9.648.028-19.221-1.702-28.25-5.104-9.203-3.489-19.366-3.489-28.569 0-9.029 3.402-18.602 5.131-28.251 5.104-15.064 0-33.346-19.45-48.907-52.029-15.558-32.574-23.699-67.821-23.699-85.803 0-35.797 32.571-64.919 72.606-64.919 9.649-.027 19.222 1.703 28.251 5.106 9.204 3.487 19.365 3.486 28.569-.001 9.029-3.403 18.601-5.133 28.25-5.105 40.035 0 72.606 29.123 72.606 64.919 0 17.98-8.141 53.227-23.7 85.803-15.56 32.58-33.843 52.029-48.906 52.029zm-173.514-203.145c-20.672 0-30.371-4.528-41.602-9.772-12.16-5.677-25.944-12.111-52.147-12.111s-39.987 6.434-52.147 12.111c-11.232 5.244-20.931 9.772-41.602 9.772s-30.37-4.528-41.602-9.77c-12.163-5.677-25.949-12.112-52.16-12.112-8.374-.035-16.713 1.089-24.779 3.34v-143.081h424.554v104.375c-11.626-7.016-26.859-10.247-45.545-9.571-6.881.18-12.314 5.904-12.134 12.786.18 6.881 5.904 12.314 12.786 12.134.08-.002.16-.005.239-.009 18.116-.636 30.852 3.059 37.868 11.017 2.573 2.987 4.433 6.519 5.44 10.331-9.345-2.647-19.012-3.984-28.725-3.972-22.746-.117-44.88 7.363-62.894 21.252-8.306 2.357-16.917 3.463-25.55 3.28zm163.505-43.495c6.159-6.539 13.182-12.204 20.876-16.84-3.839 6.986-8.586 13.434-14.118 19.173-6.158 6.538-13.181 12.204-20.875 16.839 3.839-6.986 8.585-13.432 14.117-19.172zm-402.764-305.518h290.993v45.206h-290.993zm-5.458 70.134h301.911l52.383 92.327h-406.678zm-61.322 444.642v-158.001c7.874-3.169 16.291-4.771 24.779-4.716 20.68 0 30.382 4.529 41.616 9.773 12.161 5.676 25.945 12.11 52.146 12.11s39.986-6.434 52.146-12.111c11.232-5.244 20.931-9.772 41.602-9.772s30.371 4.528 41.602 9.772c12.16 5.677 25.943 12.111 52.147 12.111.462 0 .911-.006 1.365-.01-6.843 12.365-10.441 26.263-10.455 40.396 0 24.63 10.747 64.331 26.133 96.547.616 1.29 1.257 2.594 1.909 3.902z" fill="#000000" data-original="#000000"></path><path d="m237.441 104.075c-20.651 0-37.392 16.741-37.392 37.392s16.741 37.392 37.392 37.392 37.392-16.741 37.392-37.392c-.024-20.641-16.751-37.369-37.392-37.392zm0 49.856c-6.884 0-12.464-5.58-12.464-12.464s5.58-12.464 12.464-12.464 12.464 5.58 12.464 12.464c-.008 6.881-5.584 12.457-12.464 12.464z" fill="#000000" data-original="#000000"></path></g></g></svg>