<svg xmlns="http://www.w3.org/2000/svg" version="1.1" xmlns:xlink="http://www.w3.org/1999/xlink" xmlns:svgjs="http://svgjs.com/svgjs" width="512" height="512" x="0" y="0" viewBox="0 0 606.057 606.057" style="enable-background:new 0 0 512 512" xml:space="preserve"><g><g xmlns="http://www.w3.org/2000/svg"><path d="m322.122 295.924c22.383-7.126 38.94-31.796 38.94-61.058 0-34.814-23.432-63.137-52.233-63.137s-52.234 28.322-52.234 63.136c0 29.979 17.381 55.127 40.599 61.538v97.067c0 6.884 5.58 12.464 12.464 12.464s12.464-5.58 12.464-12.464zm14.012-61.059c0 20.711-12.504 38.209-27.305 38.209s-27.306-17.498-27.306-38.209 12.505-38.209 27.306-38.209c14.801.001 27.305 17.498 27.305 38.209z" fill="#000000" data-original="#000000"></path><path d="m288.349 234.865c0 15.533 9.379 28.657 20.479 28.657 11.101 0 20.478-13.123 20.478-28.657s-9.378-28.657-20.478-28.657-20.479 13.124-20.479 28.657z" fill="#F4777C" data-original="#f4777c"></path><path d="m198.793 182.1c-5.581 4.03-6.838 11.821-2.809 17.402 5.452 7.937 8.296 17.375 8.136 27.003 0 14.012-5.727 26.544-14.013 33.191v-67.142c0-6.884-5.58-12.464-12.464-12.464s-12.464 5.58-12.464 12.464v68.377c-9.172-6.24-15.67-19.497-15.67-34.426-.15-9.518 2.625-18.852 7.949-26.742 4.004-5.599 2.712-13.384-2.888-17.389-5.599-4.004-13.384-2.712-17.389 2.888-.021.029-.041.058-.062.087-8.301 12.108-12.678 26.476-12.539 41.156 0 29.979 17.381 55.126 40.598 61.538v105.176c0 6.884 5.58 12.464 12.464 12.464s12.464-5.58 12.464-12.464v-105.657c22.384-7.126 38.941-31.796 38.941-61.058.15-14.865-4.344-29.407-12.854-41.596-4.028-5.581-11.819-6.838-17.4-2.808z" fill="#000000" data-original="#000000"></path><ellipse cx="469.288" cy="483.126" fill="#F4777C" rx="97.155" ry="88.203" data-original="#f4777c"></ellipse><path d="m481.753 360.74v-71.914c0-.342-.014-.683-.043-1.024l-15.77-191.414c7.915-31.817 7.799-61.294-.366-87.616-1.618-5.217-6.443-8.772-11.904-8.772h-421.696c-5.461 0-10.286 3.556-11.904 8.772-8.164 26.322-8.28 55.797-.366 87.613l-15.771 191.418c-.028.34-.042.681-.042 1.023v194.716c0 6.884 5.58 12.464 12.464 12.464h320.783c6.982 61.753 63.583 110.051 132.151 110.051 73.269 0 132.877-55.147 132.877-122.932 0-63.895-52.968-116.552-120.413-122.385zm-12.464 220.39c-59.524 0-107.951-43.964-107.951-98.004s48.426-98.002 107.951-98.002 107.949 43.963 107.949 98.002c0 54.038-48.426 98.003-107.949 98.004zm-427.749-556.202h402.564c3.895 17.4 3.77 36.107-.38 56.725h-401.805c-4.149-20.618-4.275-39.325-.379-56.725zm-12.721 264.411 15.055-182.753h397.893l15.057 182.753v71.401c-63.155 5.462-113.611 51.98-119.776 110.338h-308.229z" fill="#000000" data-original="#000000"></path><path d="m469.289 433.77c6.884 0 12.464-5.58 12.464-12.464v-12.336c0-6.884-5.58-12.464-12.464-12.464s-12.464 5.58-12.464 12.464v12.336c0 6.883 5.58 12.464 12.464 12.464z" fill="#000000" data-original="#000000"></path><path d="m469.289 532.483c-6.884 0-12.464 5.58-12.464 12.464v12.161c0 6.884 5.58 12.464 12.464 12.464s12.464-5.58 12.464-12.464v-12.161c0-6.883-5.58-12.464-12.464-12.464z" fill="#000000" data-original="#000000"></path><path d="m550.028 470.575h-13.351c-6.884 0-12.464 5.58-12.464 12.464s5.58 12.464 12.464 12.464h13.351c6.884 0 12.464-5.58 12.464-12.464s-5.581-12.464-12.464-12.464z" fill="#000000" data-original="#000000"></path><path d="m401.9 470.575h-13.351c-6.884 0-12.464 5.58-12.464 12.464s5.58 12.464 12.464 12.464h13.351c6.884 0 12.464-5.58 12.464-12.464s-5.58-12.464-12.464-12.464z" fill="#000000" data-original="#000000"></path><path d="m469.29 495.59c2.867.002 5.646-.986 7.868-2.798l62.247-50.672c5.338-4.346 6.143-12.197 1.797-17.535s-12.197-6.143-17.535-1.797l-53.877 43.858-19.415-17.872c-5.044-4.684-12.931-4.392-17.615.653s-4.392 12.931.653 17.615c.026.024.053.049.079.073l27.355 25.181c2.3 2.12 5.315 3.296 8.443 3.294z" fill="#000000" data-original="#000000"></path></g></g></svg>