<svg xmlns="http://www.w3.org/2000/svg" version="1.1" xmlns:xlink="http://www.w3.org/1999/xlink" xmlns:svgjs="http://svgjs.com/svgjs" width="512" height="512" x="0" y="0" viewBox="0 0 603.289 603.289" style="enable-background:new 0 0 512 512" xml:space="preserve"><g><g xmlns="http://www.w3.org/2000/svg"><path d="m77.209 377.705h448.867c6.884 0 12.464-5.58 12.464-12.464s-5.58-12.464-12.464-12.464h-15.619v-82.292c0-104.222-76.753-190.852-176.702-206.345 3.015-6.533 4.564-13.646 4.536-20.841 0-23.875-16.44-43.299-36.648-43.299s-36.648 19.424-36.648 43.299c-.027 7.195 1.521 14.308 4.536 20.841-99.95 15.493-176.703 102.122-176.703 206.345v82.292h-15.619c-6.884 0-12.464 5.58-12.464 12.464s5.581 12.464 12.464 12.464zm40.547-107.22c0-101.395 82.491-183.886 183.886-183.886s183.886 82.491 183.886 183.886v82.292h-367.772zm172.167-227.186c0-10.826 6.176-18.371 11.72-18.371s11.72 7.545 11.72 18.371-6.177 18.372-11.72 18.372-11.721-7.545-11.72-18.372z" fill="#000000" data-original="#000000"></path><path d="m361.217 489.088c-9.919 1.124-19.958 1.975-29.872 2.532-8.645.561-16.622-4.654-19.576-12.798-3.275-8.993-6.464-18.144-9.476-27.185-.229-.668-.472-.668-.65-.668s-.424 0-.654.681c-3.006 9.025-6.199 18.185-9.477 27.187-2.959 8.138-10.934 13.346-19.575 12.783-9.909-.558-19.948-1.408-29.832-2.528-.475-.058-1.012-.043-1.262.518-.095.213-.194.433.427.982 7.367 6.44 15.076 12.82 22.866 18.924 7.062 5.284 9.621 14.697 6.206 22.829-3.593 8.4-7.349 16.871-11.179 25.213-.411.852-.053 1.875.798 2.286.033.016.066.031.1.044l.024.009c.996.38 2.109.304 3.044-.208 9.005-4.951 17.985-10.211 26.683-15.631 7.252-4.469 16.402-4.471 23.656-.005 8.706 5.425 17.687 10.685 26.7 15.64.933.51 2.043.585 3.035.205l.024-.009c.877-.356 1.299-1.356.942-2.232-.014-.034-.028-.067-.044-.099-3.825-8.329-7.58-16.8-11.174-25.202-3.42-8.134-.862-17.552 6.203-22.839 7.783-6.1 15.492-12.481 22.91-18.964.574-.509.477-.729.382-.941-.233-.447-.747-.666-1.229-.524z" fill="#F4777C" data-original="#f4777c"></path><path d="m378.222 458.836c-12.713 1.44-25.626 2.534-38.384 3.251-.525.069-1.035-.208-1.263-.686-4.299-11.807-8.48-23.801-12.428-35.65l-.018-.054c-3.4-10.65-13.306-17.872-24.486-17.851-11.199-.015-21.115 7.231-24.504 17.905-3.954 11.869-8.135 23.863-12.435 35.671-.233.471-.742.739-1.262.665-12.752-.717-25.663-1.811-38.33-3.245-11.464-1.457-22.537 4.74-27.291 15.273-4.698 10.5-2.031 22.334 6.856 30.206 10.219 8.932 20.843 17.726 31.579 26.141.369.231.63.6.725 1.025-4.963 11.602-10.171 23.325-15.427 34.732-4.647 9.836-2.341 21.19 5.876 28.925 9.417 8.902 23.509 10.698 34.858 4.443 12.412-6.822 24.781-14.068 36.751-21.526 1.609-.923 3.586-.926 5.198-.007 11.981 7.465 24.35 14.711 36.773 21.539 11.348 6.249 25.433 4.452 34.847-4.448 8.217-7.735 10.524-19.089 5.927-28.82-5.298-11.496-10.507-23.218-15.479-34.844.1-.422.362-.789.729-1.02 10.728-8.408 21.352-17.203 31.637-26.193 8.735-7.411 11.508-19.71 6.797-30.152-4.746-10.521-15.795-16.717-27.246-15.28zm3.98 26.716c-9.891 8.645-20.169 17.153-30.547 25.286-9.531 7.466-12.856 19.699-8.271 30.452 5.044 11.792 10.327 23.687 15.705 35.353-.541.633-1.245 1.107-2.035 1.371-1.324.507-2.803.408-4.047-.273-12.017-6.606-23.991-13.619-35.599-20.853-9.672-5.954-21.872-5.951-31.541.007-11.597 7.226-23.571 14.24-35.577 20.841-1.247.683-2.73.784-4.058.277-.79-.263-1.494-.736-2.035-1.369 5.384-11.686 10.667-23.58 15.71-35.367 4.58-10.741 1.254-22.973-8.275-30.438-10.386-8.139-20.664-16.646-30.487-25.232-.827-.733-.696-1.026-.569-1.31.334-.749 1.05-.769 1.683-.691 13.179 1.492 26.563 2.627 39.776 3.37 11.521.75 22.155-6.194 26.1-17.044 4.37-12.003 8.628-24.216 12.636-36.249.307-.908.634-.908.872-.908.239 0 .561 0 .867.891 4.016 12.055 8.268 24.256 12.634 36.247 3.94 10.858 14.575 17.811 26.102 17.063 13.219-.744 26.603-1.878 39.829-3.377.642-.189 1.329.104 1.637.698.126.284.256.576-.51 1.255z" fill="#000000" data-original="#000000"></path><path d="m102.11 471.939c-7.099-1.963-12.247-8.107-12.938-15.44-.365-4.183-.708-8.41-1.027-12.639-.071-.975-.919-1.708-1.894-1.637-.534.039-1.023.318-1.327.759-2.14 3.076-4.301 6.144-6.464 9.176-4.489 6.116-12.517 8.469-19.597 5.743-3.246-1.204-6.498-2.446-9.758-3.727-.912-.355-1.939.097-2.294 1.01-.218.562-.136 1.196.218 1.683 2.021 2.801 4.06 5.578 6.117 8.33 4.755 6.001 4.845 14.461.217 20.561-2.717 3.474-5.479 6.957-8.258 10.411-.616.759-.5 1.874.259 2.49.421.342.975.471 1.504.352 5.39-1.231 10.79-2.554 16.101-3.947 1.51-.394 3.065-.592 4.625-.591 5.587.025 10.894 2.452 14.566 6.662 3.294 3.782 6.659 7.552 10.057 11.268.66.724 1.782.776 2.506.116.432-.394.642-.976.562-1.555-.518-3.763-1.014-7.513-1.489-11.248-.975-7.686 3.568-15.005 10.889-17.541 3.263-1.165 6.526-2.37 9.79-3.614.916-.345 1.378-1.368 1.033-2.283-.205-.544-.664-.953-1.228-1.094-4.074-1.035-8.141-2.12-12.17-3.245z" fill="#F4777C" data-original="#f4777c"></path><path d="m144.261 453.281c-9.173-2.151-18.439-4.523-27.558-7.057-.783-9.068-1.489-18.272-2.098-27.376l-.002-.04c-.694-9.972-7.613-18.418-17.254-21.061-9.138-2.597-18.91.967-24.231 8.836-4.721 6.937-9.57 13.91-14.443 20.767-8.711-3.256-17.481-6.731-26.061-10.328-9.186-4.109-19.983-1.612-26.433 6.112-6.265 7.662-6.536 18.57-.641 27.188 5.696 8.246 11.622 16.505 17.626 24.565-5.215 6.645-10.548 13.3-15.828 19.756-5.925 7.133-6.485 17.136-1.426 25.483 5.605 9.42 16.565 14.253 27.3 12.037 10.038-2.168 20.135-4.579 30.002-7.166.23.046.441.159.607.325 7.055 8.1 14.351 16.166 21.695 23.98 4.865 5.158 11.636 8.088 18.726 8.104 3.677.01 7.307-.819 10.615-2.424 8.558-4.005 13.422-13.199 11.918-22.527-1.274-8.652-2.484-17.417-3.601-26.084 8.622-3.111 17.272-6.43 25.794-9.899 8.962-3.558 14.51-12.593 13.63-22.194-.879-10.251-8.299-18.748-18.337-20.997zm-31.613 30.382c-9.762 3.382-15.819 13.14-14.519 23.388.946 7.444 1.961 14.967 3.034 22.485-6.275-6.737-12.501-13.65-18.548-20.594-4.897-5.614-11.973-8.85-19.423-8.883-2.081-.002-4.153.263-6.167.788-9.256 2.427-18.713 4.695-28.078 6.738 5.136-6.316 10.26-12.742 15.268-19.147 6.17-7.911 6.054-18.927-.289-27.415-4.337-5.803-8.638-11.719-12.843-17.672 6.8 2.756 13.655 5.417 20.466 7.943 9.44 3.635 20.144.498 26.129-7.657 4.173-5.85 8.342-11.802 12.426-17.737.556 7.856 1.178 15.748 1.856 23.526.921 9.777 7.785 17.969 17.25 20.586 7.752 2.164 15.613 4.218 23.466 6.129-6.633 2.614-13.343 5.134-20.028 7.522z" fill="#000000" data-original="#000000"></path><path d="m540.305 495.063c5.309 1.392 10.704 2.713 16.107 3.945.955.213 1.901-.388 2.114-1.342.118-.528-.012-1.081-.352-1.501-2.782-3.459-5.531-6.925-8.246-10.399-4.633-6.1-4.547-14.563.209-20.568 2.055-2.749 4.094-5.527 6.118-8.332.575-.792.399-1.9-.393-2.475-.488-.354-1.122-.436-1.683-.218-3.255 1.279-6.508 2.521-9.759 3.728-7.083 2.726-15.115.369-19.602-5.753-2.159-3.027-4.311-6.083-6.457-9.167-.556-.804-1.658-1.005-2.462-.449-.44.305-.719.792-.759 1.326-.318 4.22-.662 8.452-1.027 12.652-.695 7.33-5.844 13.469-12.94 15.43-4.022 1.123-8.091 2.208-12.171 3.246-.949.238-1.526 1.2-1.289 2.149.141.564.55 1.023 1.094 1.228 3.254 1.24 6.526 2.448 9.79 3.613 7.32 2.534 11.864 9.85 10.891 17.535-.474 3.727-.971 7.487-1.488 11.254-.135.97.542 1.866 1.512 2.001.579.081 1.161-.13 1.555-.562 3.397-3.714 6.761-7.484 10.052-11.263 4.74-5.475 12.156-7.824 19.186-6.078z" fill="#F4777C" data-original="#f4777c"></path><path d="m580.12 474.885c6.002-8.058 11.93-16.319 17.659-24.613 5.861-8.572 5.589-19.478-.676-27.14-6.441-7.714-17.219-10.215-26.399-6.126-8.604 3.608-17.374 7.084-26.093 10.343-4.871-6.855-9.723-13.832-14.443-20.767-.009-.013-.018-.027-.028-.04-5.326-7.846-15.083-11.392-24.204-8.795-9.651 2.651-16.572 11.114-17.255 21.1-.609 9.073-1.313 18.274-2.098 27.377-9.094 2.528-18.36 4.9-27.522 7.05-10.052 2.239-17.49 10.741-18.372 21.002-.875 9.625 4.7 18.675 13.691 22.221 8.466 3.445 17.113 6.763 25.733 9.874-1.113 8.638-2.321 17.395-3.587 25.998-1.539 9.352 3.323 18.588 11.904 22.613 3.307 1.605 6.937 2.434 10.613 2.423 7.093-.017 13.867-2.95 18.733-8.111 7.337-7.807 14.634-15.874 21.683-23.967.166-.169.38-.285.612-.331 9.869 2.587 19.963 4.998 30.012 7.168 10.733 2.211 21.688-2.622 27.291-12.04 5.057-8.348 4.498-18.35-1.368-25.41-5.332-6.519-10.672-13.184-15.886-19.829zm-59.454 34.064c-6.043 6.939-12.27 13.853-18.541 20.586 1.072-7.516 2.089-15.054 3.033-22.493 1.297-10.246-4.761-20.001-14.521-23.38-6.692-2.391-13.412-4.914-20.027-7.52 7.854-1.912 15.724-3.968 23.461-6.129 9.462-2.614 16.327-10.8 17.254-20.573.68-7.817 1.304-15.719 1.857-23.54 4.09 5.944 8.253 11.886 12.417 17.725 5.982 8.163 16.691 11.306 26.136 7.671 6.809-2.527 13.657-5.185 20.469-7.946-4.203 5.947-8.506 11.866-12.846 17.675-6.343 8.488-6.457 19.506-.279 27.423 4.988 6.382 10.096 12.787 15.251 19.127-9.4-2.045-18.839-4.308-28.081-6.731-9.372-2.327-19.259.805-25.583 8.105z" fill="#000000" data-original="#000000"></path></g></g></svg>