<svg xmlns="http://www.w3.org/2000/svg" version="1.1" xmlns:xlink="http://www.w3.org/1999/xlink" xmlns:svgjs="http://svgjs.com/svgjs" width="512" height="512" x="0" y="0" viewBox="0 0 608.248 608.248" style="enable-background:new 0 0 512 512" xml:space="preserve"><g><g xmlns="http://www.w3.org/2000/svg"><path d="m274.722 328.791c-.01-1.098-.73-2.064-1.78-2.388-21.154-6.829-32.767-29.514-25.938-50.668 3.975-12.313 13.626-21.964 25.938-25.938 1.05-.324 1.769-1.289 1.78-2.388v-44.723c0-1.377-1.116-2.493-2.493-2.493h-144.602c-1.377 0-2.493 1.116-2.493 2.493v144.603c0 1.377 1.116 2.493 2.493 2.493h45.139c.91-.009 1.743-.513 2.173-1.314 5.678-10.287 16.495-16.678 28.245-16.687h69.046c1.377 0 2.493-1.116 2.493-2.493v-.497z" fill="#F4777C" data-original="#f4777c"></path><path d="m570.284 341.803h-175.714v-61.99c25.122-7.265 39.597-33.52 32.332-58.642-4.515-15.612-16.72-27.817-32.332-32.332v-93.746c.013-.056.032-.11.045-.167 1.025-4.564 1.907-8.183 2.616-11.091 3.667-15.045 3.608-17.215-.904-33.16-.543-1.917-1.161-4.101-1.856-6.625-1.491-5.406-6.408-9.151-12.016-9.151h-365.053c-5.608 0-10.525 3.745-12.015 9.151-.696 2.523-1.314 4.708-1.856 6.625-4.512 15.945-4.572 18.115-.905 33.16.694 2.846 1.555 6.379 2.552 10.808v324.982c-3.394 5.361-5.189 11.579-5.175 17.924 0 18.028 14.206 32.695 31.668 32.695h191.059v31.159c.045 39.715 32.229 71.899 71.943 71.944h184.697c39.714-.046 71.897-32.229 71.943-71.943v-60.147c31.644-.79 56.896-26.648 56.936-58.302v-3.189c-.025-20.956-17.008-37.939-37.965-37.963zm-18.972 74.533v-49.605h18.971c7.196.008 13.028 5.839 13.036 13.036v3.189c-.02 17.898-14.125 32.608-32.007 33.38zm-256.64 132.084c-25.954-.03-46.986-21.062-47.015-47.015v-134.674h278.728v134.674c-.03 25.953-21.062 46.984-47.014 47.014h-184.699zm-269.742-110.87c.004-5.343 5.836-8.281 5.175-13.87v-319.024h339.536v83.785c-25.341 6.498-40.617 32.308-34.119 57.65 4.294 16.747 17.372 29.824 34.119 34.119v61.594h-56.791v-5.701c25.232-6.879 40.11-32.911 33.231-58.143-4.411-16.18-17.051-28.82-33.231-33.231v-51.502c-.019-17.201-13.959-31.141-31.16-31.16h-163.523c-17.201.019-31.141 13.959-31.16 31.16v163.523c.019 17.201 13.959 31.141 31.16 31.16h47.851c2.561 29.629 26.98 52.601 56.71 53.349v4.059h-191.058c-3.716-.001-6.74-3.485-6.74-7.768zm378.908-203.225c0 12.391-10.045 22.435-22.435 22.435-12.391 0-22.435-10.045-22.435-22.435s10.045-22.435 22.435-22.435c12.384.014 22.42 10.051 22.435 22.435zm-376.993-156.392c-1.36-5.58-1.959-8.115-1.912-9.717.372-2.85 1.014-5.658 1.917-8.387h346.158c.904 2.729 1.546 5.538 1.917 8.388.046 1.602-.553 4.137-1.912 9.717-.14.571-.286 1.169-.438 1.795h-345.293c-.152-.627-.298-1.225-.437-1.796zm195.883 338.403c-17.881-.772-31.987-15.482-32.008-33.38v-3.189c.008-7.197 5.841-13.029 13.037-13.036h18.97zm12.464-74.534h-31.434c-14.45.014-27.642 8.221-34.04 21.178h-51.551c-3.44-.004-6.228-2.792-6.232-6.232v-163.522c.004-3.44 2.792-6.228 6.232-6.232h163.523c3.44.004 6.228 2.792 6.232 6.232v51.501c-25.232 6.879-40.11 32.911-33.231 58.143 4.411 16.18 17.051 28.82 33.231 33.231v5.703zm42.759-51.388c0-12.391 10.045-22.435 22.435-22.435s22.435 10.045 22.435 22.435-10.045 22.435-22.435 22.435c-12.385-.014-22.422-10.05-22.435-22.435z" fill="#000000" data-original="#000000"></path><circle cx="300.386" cy="290.414" fill="#F4777C" r="16.826" data-original="#f4777c"></circle><circle cx="463.665" cy="290.414" fill="#F4777C" r="16.826" data-original="#f4777c"></circle><path d="m463.665 337.777c26.158 0 47.363-21.205 47.363-47.363s-21.205-47.363-47.363-47.363-47.363 21.205-47.363 47.363c.029 26.145 21.217 47.333 47.363 47.363zm0-69.799c12.391 0 22.435 10.045 22.435 22.435s-10.045 22.435-22.435 22.435-22.435-10.045-22.435-22.435c.014-12.384 10.05-22.42 22.435-22.435z" fill="#000000" data-original="#000000"></path><circle cx="381.402" cy="234.325" fill="#F4777C" r="16.826" data-original="#f4777c"></circle><path d="m221.619 283.089h-43.381c-6.884.009-12.457 5.596-12.449 12.479.008 6.872 5.577 12.44 12.449 12.449h43.381c6.884 0 12.464-5.58 12.464-12.464s-5.58-12.464-12.464-12.464z" fill="#000000" data-original="#000000"></path><path d="m221.619 241.957h-43.381c-6.884 0-12.464 5.58-12.464 12.464s5.58 12.464 12.464 12.464h43.381c6.884 0 12.464-5.58 12.464-12.464s-5.58-12.464-12.464-12.464z" fill="#000000" data-original="#000000"></path></g></g></svg>