<svg xmlns="http://www.w3.org/2000/svg" version="1.1" xmlns:xlink="http://www.w3.org/1999/xlink" xmlns:svgjs="http://svgjs.com/svgjs" width="512" height="512" x="0" y="0" viewBox="0 0 600.597 600.597" style="enable-background:new 0 0 512 512" xml:space="preserve"><g><g xmlns="http://www.w3.org/2000/svg"><path d="m600.425 529.925c-.997-18.945-9.971-36.644-24.679-48.734l-111.055-90.738c63.691-97.968 52.598-230.71-33.279-316.587-98.84-98.591-258.879-98.466-357.469.249s-98.466 258.879.249 357.469c84.382 84.257 216.127 98.092 316.089 33.154l90.738 111.055c12.09 14.708 29.664 23.682 48.735 24.679 1.122 0 2.243.125 3.365.125 37.143 0 67.306-30.038 67.306-67.181.125-1.122.125-2.369 0-3.491zm-508.908-116.04c-88.993-88.993-88.993-233.327 0-322.445s233.327-88.993 322.445 0c88.869 88.869 88.869 233.577 0 322.445s-233.576 88.993-322.445 0zm471.765 149.444c-16.577 16.577-43.375 16.577-59.827 0-.997-.997-1.994-2.119-2.867-3.116l-88.869-108.687 19.818-19.818 19.818-19.818 108.687 88.869c18.073 14.832 20.815 41.381 5.983 59.578-.873.873-1.746 1.87-2.743 2.992z" fill="#000000" data-original="#000000"></path><path d="m362.736 304.077c1.496 0 2.617-1.246 2.493-2.742-7.229-60.949-61.697-105.321-123.145-99.463-53.346 4.986-95.724 46.616-101.956 99.463-.125 1.496.997 2.742 2.493 2.742z" fill="#F4777C" data-original="#f4777c"></path><path d="m452.477 325.639c0-6.855-5.609-12.464-12.464-12.464h-29.54c-5.609-69.425-55.839-127.009-123.768-142.09 9.473-18.821 1.87-41.755-16.951-51.227s-41.755-1.87-51.227 16.951c-5.484 10.844-5.484 23.557 0 34.276-67.929 15.082-118.159 72.79-123.768 142.09h-29.416c-6.855 0-12.464 5.609-12.464 12.464s5.609 12.464 12.464 12.464h374.67c6.855 0 12.464-5.608 12.464-12.464zm-199.799-184.966c7.229 0 13.212 5.858 13.212 13.212 0 7.229-5.858 13.212-13.212 13.212-7.229 0-13.212-5.858-13.212-13.212 0-7.23 5.983-13.088 13.212-13.212zm0 51.601c68.802.125 126.261 52.474 132.742 120.901h-265.484c6.481-68.427 63.94-120.776 132.742-120.901z" fill="#000000" data-original="#000000"></path><circle cx="252.678" cy="153.885" fill="#F4777C" r="8.102" data-original="#f4777c"></circle></g></g></svg>