<svg xmlns="http://www.w3.org/2000/svg" version="1.1" xmlns:xlink="http://www.w3.org/1999/xlink" xmlns:svgjs="http://svgjs.com/svgjs" width="512" height="512" x="0" y="0" viewBox="0 0 602.014 602.014" style="enable-background:new 0 0 512 512" xml:space="preserve"><g><g xmlns="http://www.w3.org/2000/svg"><path d="m560.108 224.084h-518.2c-23.109 0-41.908 18.002-41.908 40.129v4.426c0 16.602 10.583 30.88 25.628 36.977l18.18 67.109-9.977 9.374c-13.228 12.216-14.048 32.843-1.831 46.071.586.635 1.197 1.246 1.832 1.832h.001c6.621 6.136 15.33 9.52 24.357 9.464 1.216 0 2.432-.066 3.643-.186l41.595 153.531c1.472 5.432 6.402 9.204 12.03 9.204h371.102c5.629 0 10.559-3.772 12.031-9.204l41.593-153.53c1.211.12 2.426.186 3.642.186 9.027.056 17.736-3.327 24.357-9.464 13.228-12.215 14.049-32.841 1.833-46.069-.587-.635-1.198-1.247-1.833-1.833l-9.976-9.373 18.18-67.109c15.045-6.096 25.628-20.375 25.628-36.977v-4.427c-.001-22.129-18.8-40.131-41.907-40.131zm16.978 40.129v4.426c0 8.382-7.616 15.2-16.979 15.2h-96.501l-37.067-34.828h133.568c9.364.001 16.979 6.821 16.979 15.202zm-215.846 17.117 2.671 2.51h-125.807l2.671-2.509c8.875-8.202 12.49-20.637 9.396-32.318h101.675c-3.096 11.681.519 24.116 9.394 32.317zm-336.312-17.117c0-8.382 7.617-15.201 16.979-15.201h133.567l-37.067 34.828h-96.5c-9.363 0-16.979-6.819-16.979-15.2v-4.427zm27.38 44.555h59.569l-47.482 44.614zm-4.032 97.282c.031-2.209.983-4.305 2.625-5.783l15.465-14.531.048-.045 142.715-134.095c7.505-7.842 23.657 2.492 14.576 11.567l-158.227 148.671c-4.15 3.712-10.427 3.712-14.576 0-1.643-1.478-2.595-3.575-2.626-5.784zm428.746 171.036h-352.029l-40.374-149.03 126.955-119.288h178.868l126.954 119.287zm74.09-165.252c-4.149 3.712-10.426 3.712-14.575 0l-158.228-148.671c-9.081-9.08 7.076-19.405 14.576-11.567l142.717 134.097.043.04 15.468 14.533c3.194 2.793 3.519 7.647.726 10.841-.226.258-.468.501-.727.727zm-60.975-103.065h59.569l-12.086 44.614z" fill="#000000" data-original="#000000"></path><path d="m301.007 350.789c-6.884 0-12.464 5.58-12.464 12.464v159.577c0 6.884 5.58 12.464 12.464 12.464s12.464-5.58 12.464-12.464v-159.577c0-6.884-5.58-12.464-12.464-12.464z" fill="#000000" data-original="#000000"></path><path d="m395.225 350.56c-6.884 0-12.464 5.58-12.464 12.464v159.348c0 6.884 5.58 12.464 12.464 12.464s12.464-5.58 12.464-12.464v-159.348c0-6.883-5.58-12.463-12.464-12.464z" fill="#000000" data-original="#000000"></path><path d="m206.789 350.56c-6.884 0-12.464 5.58-12.464 12.464v159.348c0 6.884 5.58 12.464 12.464 12.464s12.464-5.58 12.464-12.464v-159.348c0-6.883-5.58-12.464-12.464-12.464z" fill="#000000" data-original="#000000"></path><path d="m251.231 120.824 48.158 41.088c.932.795 2.304.795 3.236 0l48.158-41.088c1.047-.894 1.172-2.467.278-3.514-.474-.555-1.167-.875-1.896-.875h-13.238c-1.377 0-2.493-1.116-2.493-2.493v-70.332c0-1.793-1.906-3.308-4.162-3.308h-54.646c-2.256 0-4.161 1.515-4.161 3.308v70.332c0 1.377-1.116 2.493-2.493 2.493h-15.123c-1.377 0-2.493 1.116-2.493 2.493 0 .73.32 1.423.875 1.896z" fill="#F4777C" data-original="#f4777c"></path><path d="m213.027 136.371 79.891 68.162c4.66 3.976 11.519 3.976 16.179 0l79.892-68.163c7.463-6.226 10.195-16.479 6.82-25.593-3.537-9.512-12.682-15.765-22.829-15.611h-6.511v-66.103c.001-16.026-13.516-29.063-30.13-29.063h-68.308c-16.613 0-30.13 13.037-30.13 29.063v66.103h-8.867c-10.147-.154-19.291 6.099-22.828 15.611-3.375 9.115-.643 19.368 6.821 25.594zm49.802-28.741v-78.567c0-2.242 2.382-4.135 5.202-4.135h68.308c2.82 0 5.202 1.893 5.202 4.135v78.567c0 6.884 5.58 12.464 12.464 12.464h15.653l-68.651 58.573-68.65-58.573h18.009c6.883 0 12.464-5.58 12.463-12.464z" fill="#000000" data-original="#000000"></path></g></g></svg>