<svg xmlns="http://www.w3.org/2000/svg" version="1.1" xmlns:xlink="http://www.w3.org/1999/xlink" xmlns:svgjs="http://svgjs.com/svgjs" width="512" height="512" x="0" y="0" viewBox="0 0 604.028 604.028" style="enable-background:new 0 0 512 512" xml:space="preserve"><g><g xmlns="http://www.w3.org/2000/svg"><path d="m322.891 92.922c1.377 0 2.493-1.116 2.493-2.493v-53.076c-.062-1.553-1.368-2.765-2.921-2.711h-40.898c-1.554-.054-2.859 1.157-2.921 2.711v53.077c0 1.377 1.116 2.493 2.493 2.493h41.754z" fill="#F4777C" data-original="#f4777c"></path><path d="m499.016 102.636h-140.914v-74.093c-.096-15.833-12.989-28.602-28.823-28.543h-54.53c-15.833-.059-28.727 12.709-28.823 28.543v74.093h-140.914c-39.18.044-70.931 31.795-70.976 70.975v27.778c0 6.884 5.58 12.464 12.464 12.464h23.198l78.93 358.462c4.046 18.376 22.374 31.713 43.58 31.713h219.609c21.206 0 39.534-13.337 43.58-31.713l78.929-358.462h23.2c6.884 0 12.464-5.58 12.464-12.464v-27.778c-.043-39.18-31.794-70.931-70.974-70.975zm-224.267-77.708h54.53c2.072-.072 3.812 1.543 3.895 3.615v74.093h-62.32v-74.093c.082-2.071 1.823-3.687 3.895-3.615zm156.305 542.027c-1.525 6.923-9.795 12.145-19.237 12.145h-219.608c-9.441 0-17.71-5.222-19.235-12.145l-77.75-353.102h413.579zm114.009-378.03h-486.098v-15.314c.029-25.419 20.628-46.018 46.048-46.047h394.003c25.419.029 46.019 20.628 46.048 46.047v15.314z" fill="#000000" data-original="#000000"></path><circle cx="302.014" cy="396.476" fill="#F4777C" r="63.567" data-original="#f4777c"></circle><path d="m302.014 496.188c55.07 0 99.713-44.643 99.713-99.713s-44.643-99.713-99.713-99.713-99.713 44.643-99.713 99.713c.062 55.045 44.669 99.651 99.713 99.713zm0-174.497c41.302 0 74.784 33.482 74.784 74.784s-33.482 74.784-74.784 74.784-74.784-33.482-74.784-74.784c.046-41.282 33.501-74.737 74.784-74.784z" fill="#000000" data-original="#000000"></path></g></g></svg>