<svg xmlns="http://www.w3.org/2000/svg" version="1.1" xmlns:xlink="http://www.w3.org/1999/xlink" xmlns:svgjs="http://svgjs.com/svgjs" width="512" height="512" x="0" y="0" viewBox="0 0 602.016 602.016" style="enable-background:new 0 0 512 512" xml:space="preserve"><g><g xmlns="http://www.w3.org/2000/svg"><g fill="#F4777C"><path d="m342.783 215.46c1.347.266 2.654-.611 2.919-1.957.059-.297.062-.602.011-.901-4.538-24.69-28.232-41.027-52.922-36.489-18.557 3.411-33.078 17.931-36.489 36.489-.232 1.353.677 2.638 2.03 2.87.298.051.604.047.901-.011 27.614-5.135 55.937-5.135 83.55-.001z" fill="#F4777C" data-original="#f4777c"></path><path d="m68.19 322.424c.71 1.176 2.238 1.555 3.415.845.269-.162.505-.374.695-.624 17.199-22.156 38.329-40.956 62.334-55.462 1.183-.695 1.579-2.218.883-3.401-.157-.267-.362-.502-.605-.694-20.039-15.175-48.586-11.231-63.761 8.808-11.124 14.691-12.293 34.639-2.961 50.528z" fill="#F4777C" data-original="#f4777c"></path><path d="m494.62 253.775c-9.945.005-19.612 3.278-27.516 9.314-1.078.849-1.264 2.411-.416 3.489.191.243.427.449.694.605 24.005 14.506 45.135 33.306 62.334 55.462.832 1.093 2.392 1.305 3.486.473.25-.19.461-.426.624-.695 12.741-21.71 5.47-49.639-16.241-62.38-6.965-4.086-14.89-6.25-22.965-6.268z" fill="#F4777C" data-original="#f4777c"></path></g><path d="m556.541 358.934c.274-.316.547-.633.817-.951 4.364-2.544 7.42-6.844 8.388-11.802 24.07-40.776 10.527-93.343-30.249-117.412-8.191-4.835-17.13-8.274-26.45-10.174.275-.616.542-1.209.777-1.728 4.285-9.469 9.139-20.202 2.846-29.489-6.351-9.37-18.208-8.813-28.673-8.326-1.402.066-3.227.152-4.959.185.369-1.741.812-3.576 1.15-4.98 2.445-10.129 5.216-21.609-2.753-29.555-8.035-8.01-19.576-5.168-29.763-2.659-1.383.341-3.191.786-4.906 1.158.009-1.791.075-3.698.125-5.152.357-10.449.762-22.292-8.715-28.463-9.526-6.203-20.228-.999-29.67 3.591-1.305.635-3.019 1.468-4.646 2.202-.383-1.755-.736-3.64-1.005-5.075-1.937-10.322-4.131-22.021-14.804-25.958-10.663-3.929-19.914 3.541-28.075 10.137-1.151.931-2.668 2.157-4.115 3.255-.773-1.608-1.548-3.351-2.139-4.678-4.288-9.637-9.147-20.561-20.507-21.908-11.259-1.336-18.471 8.068-24.842 16.36-.935 1.217-2.174 2.832-3.364 4.281-1.19-1.449-2.431-3.064-3.365-4.281-6.371-8.293-13.6-17.685-24.843-16.36-11.36 1.347-16.219 12.271-20.507 21.909-.59 1.327-1.365 3.069-2.138 4.678-1.447-1.099-2.963-2.325-4.115-3.255-8.159-6.597-17.408-14.076-28.075-10.137-10.672 3.937-12.867 15.636-14.803 25.958-.27 1.436-.623 3.321-1.006 5.075-1.628-.733-3.341-1.567-4.647-2.201-9.441-4.591-20.142-9.794-29.67-3.591-9.476 6.171-9.072 18.014-8.714 28.463.05 1.455.114 3.361.124 5.152-1.716-.372-3.523-.817-4.907-1.158-10.183-2.51-21.727-5.354-29.762 2.659-7.97 7.947-5.199 19.426-2.753 29.554.339 1.404.782 3.241 1.15 4.981-1.732-.034-3.557-.119-4.958-.185-10.463-.492-22.323-1.043-28.673 8.326-6.293 9.286-1.438 20.02 2.846 29.49.235.519.502 1.111.777 1.726-46.395 9.463-76.334 54.744-66.871 101.139 1.901 9.32 5.339 18.258 10.174 26.449.968 4.955 4.023 9.254 8.385 11.798.27.32.543.637.819.953-29.859 47.866-45.62 103.179-45.476 159.594 0 6.884 5.58 12.464 12.464 12.464h577.086c6.884 0 12.464-5.581 12.464-12.464.145-56.415-15.616-111.729-45.474-159.595zm-531.336 147.131c6.533-146.806 127.744-264.239 275.803-264.239s269.27 117.432 275.803 264.239zm24.09-203.448c-.119-33.455 26.905-60.672 60.36-60.792 14.999-.053 29.485 5.46 40.653 15.472-22.711 13.22-43.604 29.34-62.153 47.955-10.037 10.061-19.36 20.81-27.902 32.168-7.124-10.209-10.948-22.355-10.958-34.803zm65.609-96.023c-.366-.808-.802-1.772-1.243-2.775 1.15.04 2.264.093 3.193.136 9.817.459 20.944.98 27.528-7.006 6.627-8.036 3.997-18.93 1.677-28.541-.203-.844-.445-1.845-.686-2.887 1.085.254 2.13.512 3.006.728 9.528 2.347 20.325 5.007 28.336-1.508 8.041-6.539 7.66-17.697 7.323-27.542-.029-.845-.063-1.843-.089-2.882.962.455 1.882.903 2.659 1.281 8.813 4.285 18.805 9.144 28.001 4.5 9.198-4.641 11.246-15.561 13.054-25.196.153-.816.333-1.778.531-2.778.787.625 1.537 1.231 2.175 1.747 7.625 6.163 16.268 13.155 26.285 10.736 9.958-2.4 14.451-12.501 18.416-21.413.341-.766.743-1.67 1.17-2.607.593.758 1.154 1.488 1.633 2.113 5.995 7.803 12.788 16.648 23.135 16.648s17.141-8.845 23.133-16.649c.48-.624 1.04-1.354 1.633-2.111.427.937.829 1.84 1.17 2.606 3.964 8.913 8.458 19.014 18.416 21.413 10.021 2.415 18.66-4.572 26.285-10.736.638-.515 1.387-1.122 2.175-1.747.197 1 .377 1.961.531 2.777 1.807 9.635 3.855 20.555 13.054 25.196 9.2 4.642 19.188-.216 27.999-4.501.777-.377 1.698-.825 2.658-1.28-.025 1.039-.058 2.037-.087 2.882-.337 9.845-.718 21.004 7.324 27.541 8.01 6.516 18.808 3.856 28.335 1.509.876-.216 1.922-.474 3.006-.728-.24 1.042-.482 2.044-.686 2.888-2.32 9.61-4.949 20.502 1.676 28.54 6.584 7.985 17.71 7.463 27.529 7.006.93-.044 2.042-.095 3.193-.136-.441 1.003-.876 1.966-1.242 2.775-1.675 3.517-3.134 7.133-4.369 10.828-20.838 2.305-40.104 12.182-54.141 27.755-13.588-6.377-27.641-11.713-42.036-15.963 0-47.252-38.305-85.558-85.558-85.558s-85.558 38.305-85.558 85.558c-14.396 4.25-28.448 9.586-42.036 15.963-14.037-15.573-33.303-25.449-54.142-27.754-1.232-3.696-2.691-7.311-4.366-10.828zm437.817 96.023c-.011 12.448-3.835 24.594-10.958 34.803-8.542-11.358-17.865-22.106-27.902-32.168-18.549-18.614-39.442-34.734-62.153-47.954 24.91-22.333 63.208-20.243 85.541 4.667 10.013 11.168 15.526 25.654 15.472 40.652zm-312.003-79.692c3.457-33.297 33.252-57.488 66.55-54.031 28.524 2.961 51.069 25.507 54.031 54.031-39.792-8.036-80.789-8.036-120.581 0z" fill="#000000" data-original="#000000"></path><path d="m299.751 344.64c6.884 0 12.464-5.58 12.464-12.464s-5.58-12.464-12.464-12.464h-.012c-6.884.003-12.461 5.587-12.458 12.47.003 6.884 5.586 12.462 12.47 12.458z" fill="#000000" data-original="#000000"></path><path d="m197.158 344.64c6.884 0 12.464-5.58 12.464-12.464s-5.58-12.464-12.464-12.464h-.012c-6.884.003-12.461 5.587-12.458 12.47.003 6.884 5.586 12.462 12.47 12.458z" fill="#000000" data-original="#000000"></path><path d="m402.343 344.64c6.884 0 12.464-5.58 12.464-12.464s-5.58-12.464-12.464-12.464h-.012c-6.884.003-12.461 5.587-12.458 12.47.003 6.884 5.587 12.462 12.47 12.458z" fill="#000000" data-original="#000000"></path><path d="m248.454 403.249h-.012c-6.887.003-12.468 5.589-12.464 12.477.003 6.887 5.589 12.468 12.477 12.464 6.887-.003 12.468-5.589 12.464-12.477-.004-6.882-5.583-12.46-12.465-12.464z" fill="#000000" data-original="#000000"></path><path d="m145.861 403.249h-.012c-6.887.003-12.468 5.589-12.464 12.477s5.589 12.468 12.477 12.464c6.887-.003 12.468-5.589 12.464-12.477-.004-6.882-5.583-12.46-12.465-12.464z" fill="#000000" data-original="#000000"></path><path d="m351.047 403.249h-.012c-6.887.003-12.467 5.589-12.464 12.476s5.589 12.467 12.476 12.464 12.467-5.589 12.464-12.476c-.003-6.882-5.582-12.46-12.464-12.464z" fill="#000000" data-original="#000000"></path><path d="m456.204 403.249h-.012c-6.887.003-12.467 5.589-12.464 12.476s5.589 12.467 12.476 12.464 12.467-5.589 12.464-12.476c-.004-6.882-5.582-12.46-12.464-12.464z" fill="#000000" data-original="#000000"></path></g></g></svg>