<svg xmlns="http://www.w3.org/2000/svg" version="1.1" xmlns:xlink="http://www.w3.org/1999/xlink" xmlns:svgjs="http://svgjs.com/svgjs" width="512" height="512" x="0" y="0" viewBox="0 0 601.556 601.556" style="enable-background:new 0 0 512 512" xml:space="preserve"><g><g xmlns="http://www.w3.org/2000/svg"><g fill="#F4777C"><path d="m120.108 284.993h37.557c2.557 0 4.629 2.073 4.629 4.629v36.989c0 2.557-2.073 4.629-4.629 4.629h-37.557c-2.557 0-4.629-2.073-4.629-4.629v-36.989c-.001-2.557 2.072-4.629 4.629-4.629z" fill="#F4777C" data-original="#f4777c"></path><path d="m356.902 478.182c1.825 14.501 7.035 28.37 15.209 40.487.768 1.15 2.322 1.459 3.472.691.131-.088.254-.187.366-.298l39.733-39.389c.977-.969.984-2.548.014-3.525-.468-.472-1.105-.737-1.769-.737h-54.547c-1.371-.006-2.488 1.1-2.495 2.472 0 .099.006.2.017.299z" fill="#F4777C" data-original="#f4777c"></path><path d="m436.283 500.778-40.843 40.488c-.978.979-.977 2.565.001 3.543.053.053.108.103.165.151 11.939 10.213 26.497 16.88 42.029 19.247 1.367.216 2.649-.718 2.865-2.085.02-.125.03-.252.031-.379v-59.196c0-1.377-1.116-2.493-2.493-2.493-.658.002-1.289.261-1.755.724z" fill="#F4777C" data-original="#f4777c"></path><path d="m549.54 518.669c8.174-12.116 13.384-25.985 15.209-40.487.16-1.362-.815-2.596-2.177-2.755-.1-.012-.2-.017-.301-.017h-54.547c-1.377 0-2.493 1.116-2.492 2.493 0 .665.266 1.302.737 1.77l39.733 39.389c.985.97 2.57.958 3.54-.027.111-.112.211-.235.298-.366z" fill="#F4777C" data-original="#f4777c"></path><path d="m481.122 502.548v59.196c.006 1.384 1.133 2.5 2.516 2.494.127-.001.254-.011.379-.031 15.531-2.367 30.09-9.035 42.028-19.247 1.062-.887 1.204-2.467.318-3.529-.048-.057-.098-.112-.151-.165l-40.842-40.488c-.978-.969-2.556-.962-3.525.015-.463.467-.723 1.098-.723 1.755z" fill="#F4777C" data-original="#f4777c"></path></g><path d="m588.695 442.859h-103.601l37.386-300.76c4.48-2.037 8.255-5.356 10.847-9.538 4.369-6.984 4.787-15.738 1.104-23.107l-26.094-52.575c-4.386-8.547-13.203-13.904-22.809-13.861h-34.469l-3.881-22.594c-2.219-11.985-12.766-20.616-24.953-20.421h-308.411c-12.187-.196-22.735 8.436-24.953 20.421l-3.882 22.594h-33.186c-9.607-.043-18.424 5.314-22.81 13.861l-26.092 52.574c-3.684 7.368-3.266 16.123 1.103 23.107 2.593 4.183 6.368 7.503 10.848 9.539l52.444 421.904c2.649 21.312 21.665 37.382 44.233 37.382h314.284c4.24.002 8.46-.575 12.544-1.715 7.428 1.254 14.948 1.884 22.481 1.885 77.379 0 140.333-65.599 140.333-146.233-.002-6.883-5.582-12.463-12.466-12.463zm-202.988 104.483 62.655-62.112v90.696c-23.363-2.73-45.28-12.728-62.655-28.584zm-39.682-79.555h84.523l-61.515 60.981c-12.958-17.917-20.901-38.968-23.008-60.981zm127.265 108.138v-90.695l62.654 62.112c-17.375 15.856-39.291 25.854-62.654 28.583zm79.327-47.156-61.515-60.981h84.523c-2.106 22.012-10.049 43.063-23.008 60.981zm-439.253-503.754c.142-.059.295-.087.449-.084h308.412c.154-.003.307.025.449.084l3.093 18.003h-315.496zm-62.109 43.061c.164-.091.35-.135.537-.13h43.633c.024 0 .048.003.072.003s.045-.003.068-.003h389.962c.187-.005.373.039.537.13l25.526 51.434h-57.9c-.05 0-.098-.001-.148 0h-427.813zm60.264 508.381c-10.013 0-18.394-6.676-19.495-15.529l-51.756-416.371h42.027l.023.001.028-.001h44.347v107.8h-12.845c-17.168.019-31.081 13.932-31.1 31.101v49.319c.019 17.168 13.932 31.081 31.1 31.1h50.075c17.168-.019 31.081-13.932 31.101-31.1v-49.319c-.019-17.168-13.932-31.081-31.101-31.1h-12.302v-107.8h345.431l-37.08 298.302h-127.016c-6.884 0-12.464 5.581-12.464 12.464 0 50.339 24.537 94.817 61.801 121.134zm52.404-299.172c3.407.004 6.168 2.765 6.172 6.172v49.319c-.004 3.407-2.765 6.168-6.172 6.172h-50.075c-3.407-.004-6.168-2.765-6.172-6.172v-49.319c.004-3.407 2.765-6.168 6.172-6.172z" fill="#000000" data-original="#000000"></path></g></g></svg>