<svg xmlns="http://www.w3.org/2000/svg" version="1.1" xmlns:xlink="http://www.w3.org/1999/xlink" xmlns:svgjs="http://svgjs.com/svgjs" width="512" height="512" x="0" y="0" viewBox="0 0 604.507 604.507" style="enable-background:new 0 0 512 512" xml:space="preserve"><g><g xmlns="http://www.w3.org/2000/svg"><path d="m314.685 343.616c2.839.131 3.591-1.49 3.716-1.816.136-.356.305-.8-.702-1.622-9.769-7.724-11.426-21.905-3.703-31.674 1.087-1.374 2.33-2.617 3.704-3.704 1.007-.821.837-1.265.701-1.621-.125-.326-.904-1.924-3.716-1.816-7.184.377-14.192-2.304-19.29-7.38-4.571-4.522-6.981-10.788-6.619-17.207.04-.719-.484-1.328-1.558-1.809-1.653-.783-3.612-.512-4.991.69-10.008 9.755-25.968 9.755-35.977 0-1.378-1.202-3.338-1.474-4.99-.691-1.075.481-1.599 1.09-1.558 1.811.361 6.42-2.05 12.685-6.622 17.207-5.098 5.073-12.105 7.754-19.287 7.379-2.822-.122-3.592 1.49-3.717 1.816-.136.356-.306.8.702 1.622 9.77 7.724 11.428 21.906 3.704 31.676-1.086 1.374-2.329 2.617-3.704 3.703-1.008.822-.838 1.265-.702 1.621.125.326.883 1.956 3.716 1.816.407-.019.813-.028 1.218-.028 6.77-.038 13.274 2.628 18.07 7.407 4.572 4.521 6.983 10.787 6.622 17.207-.04.721.484 1.329 1.559 1.811 1.652.784 3.612.513 4.989-.69 10.009-9.756 25.969-9.756 35.978 0 1.377 1.204 3.338 1.475 4.99.69 1.075-.481 1.599-1.091 1.559-1.811-.362-6.419 2.049-12.684 6.619-17.206 5.101-5.071 12.106-7.751 19.289-7.381z" fill="#F4777C" data-original="#f4777c"></path><path d="m342.886 320.998c9.098-7.119 12.488-19.339 8.359-30.127-4.373-11.442-15.927-18.733-28.806-18.138-1.402.108-2.786-.368-3.826-1.315-.383-.325-.608-.799-.618-1.301.643-11.362-5.694-21.437-16.537-26.29-11.365-5.262-24.805-2.892-33.685 5.94-2.035 1.738-5.032 1.739-7.067.001-8.88-8.832-22.32-11.203-33.685-5.941-10.844 4.854-17.179 14.928-16.537 26.29-.011.502-.237.976-.62 1.301-1.039.947-2.423 1.423-3.824 1.315-12.844-.596-24.434 6.695-28.807 18.139-4.129 10.789-.739 23.009 8.36 30.128.823.433 1.139 1.451.705 2.274-.159.301-.404.547-.705.705-9.099 7.119-12.489 19.34-8.36 30.129 4.373 11.443 15.97 18.757 28.806 18.137 1.401-.101 2.782.374 3.825 1.315.383.325.609.799.62 1.301-.643 11.363 5.694 21.437 16.537 26.29 3.993 1.801 8.322 2.737 12.703 2.746 7.872.016 15.425-3.111 20.982-8.686 2.034-1.739 5.032-1.74 7.067-.001 8.879 8.834 22.32 11.205 33.685 5.941 10.844-4.853 17.181-14.928 16.538-26.293.011-.501.236-.974.618-1.299 1.043-.941 2.425-1.416 3.826-1.315 12.817.609 24.433-6.695 28.806-18.137 4.13-10.789.739-23.01-8.36-30.129-.823-.433-1.139-1.452-.705-2.275.158-.3.404-.546.705-.705zm-49.78 55.271c.047.848-.569 1.564-1.834 2.13-.356.161-3.562 1.5-5.871-.812-11.775-11.477-30.552-11.477-42.327 0-2.309 2.311-5.512.971-5.87.812-1.265-.566-1.881-1.282-1.834-2.13.425-7.552-2.412-14.924-7.79-20.243-5.641-5.622-13.294-8.759-21.258-8.714-.476 0-.954.011-1.433.033-3.333.164-4.225-1.753-4.372-2.136-.16-.419-.36-.941.826-1.907 11.494-9.088 13.444-25.772 4.357-37.266-1.278-1.616-2.74-3.079-4.357-4.357-1.186-.966-.986-1.489-.826-1.908.147-.383 1.053-2.279 4.373-2.136 8.45.441 16.693-2.712 22.691-8.681 5.378-5.319 8.215-12.691 7.79-20.243-.047-.848.569-1.564 1.833-2.13.356-.16 3.562-1.497 5.871.813 11.775 11.476 30.551 11.476 42.325 0 2.311-2.309 5.513-.972 5.871-.812 1.264.566 1.881 1.282 1.833 2.128-.426 7.552 2.41 14.924 7.788 20.244 5.998 5.971 14.242 9.125 22.694 8.682 3.308-.128 4.225 1.753 4.372 2.136.16.419.359.942-.825 1.907-11.494 9.086-13.446 25.769-4.36 37.263 1.279 1.617 2.741 3.08 4.359 4.359 1.186.968.986 1.49.826 1.909-.147.383-1.032 2.291-4.372 2.136-8.451-.436-16.692 2.717-22.694 8.682-5.377 5.319-8.212 12.69-7.786 20.241z" fill="#000000" data-original="#000000"></path><path d="m242.421 315.229c6.884 0 12.464-5.58 12.464-12.464s-5.58-12.464-12.464-12.464h-.012c-6.884.003-12.461 5.587-12.458 12.47.003 6.884 5.587 12.461 12.47 12.458z" fill="#000000" data-original="#000000"></path><path d="m293.322 296.226c-4.614-5.109-12.495-5.51-17.604-.897l-39.83 35.968c-5.109 4.614-5.511 12.495-.897 17.604s12.495 5.511 17.604.897l39.83-35.968c5.108-4.614 5.51-12.495.897-17.604z" fill="#000000" data-original="#000000"></path><path d="m592.043 102.829h-579.579c-6.884 0-12.464 5.58-12.464 12.464v373.922c0 6.884 5.58 12.464 12.464 12.464h579.579c6.884 0 12.464-5.58 12.464-12.464v-373.922c0-6.884-5.58-12.464-12.464-12.464zm-12.464 373.922h-50.887v-9.348c0-6.884-5.58-12.464-12.464-12.464s-12.464 5.58-12.464 12.464v9.348h-478.836v-348.994h478.836v9.348c0 6.884 5.58 12.464 12.464 12.464s12.464-5.58 12.464-12.464v-9.348h50.887z" fill="#000000" data-original="#000000"></path><path d="m454.37 415.49h-.006l-35.538.017v-56.546c-.096-73.485-51.826-136.783-123.822-151.508 6.03-16.992-2.857-35.654-19.848-41.684-16.992-6.03-35.654 2.857-41.684 19.848-2.506 7.063-2.506 14.773 0 21.835-71.995 14.725-123.726 78.023-123.821 151.508v56.698l-35.551.019c-6.884.016-12.451 5.609-12.435 12.493.016 6.864 5.578 12.423 12.442 12.436h.006l380.264-.187c6.884-.002 12.463-5.583 12.461-12.467-.003-6.885-5.584-12.464-12.468-12.462zm-190.132-226.659c4.262 0 7.718 3.455 7.718 7.718 0 4.262-3.455 7.718-7.718 7.718-4.262 0-7.718-3.455-7.718-7.718.006-4.261 3.458-7.713 7.718-7.718zm-129.659 170.13c0-71.609 58.05-129.659 129.659-129.659s129.659 58.05 129.659 129.659v56.528h-259.318z" fill="#000000" data-original="#000000"></path><path d="m516.228 266.197c-6.884 0-12.464 5.58-12.464 12.464v47.186c0 6.884 5.58 12.464 12.464 12.464s12.464-5.58 12.464-12.464v-47.186c0-6.884-5.58-12.464-12.464-12.464z" fill="#000000" data-original="#000000"></path><path d="m516.228 360.567c-6.884 0-12.464 5.58-12.464 12.464v47.186c0 6.884 5.58 12.464 12.464 12.464s12.464-5.58 12.464-12.464v-47.186c0-6.884-5.581-12.464-12.464-12.464z" fill="#000000" data-original="#000000"></path><path d="m516.228 171.826c-6.884 0-12.464 5.58-12.464 12.464v47.185c0 6.884 5.58 12.464 12.464 12.464s12.464-5.58 12.464-12.464v-47.185c0-6.884-5.58-12.464-12.464-12.464z" fill="#000000" data-original="#000000"></path><path d="m286.045 329.675h-.012c-6.887.003-12.468 5.589-12.464 12.477s5.589 12.468 12.477 12.464c6.887-.003 12.468-5.59 12.464-12.477-.004-6.883-5.582-12.461-12.465-12.464z" fill="#000000" data-original="#000000"></path></g></g></svg>