<svg xmlns="http://www.w3.org/2000/svg" version="1.1" xmlns:xlink="http://www.w3.org/1999/xlink" xmlns:svgjs="http://svgjs.com/svgjs" width="512" height="512" x="0" y="0" viewBox="0 0 600.806 600.806" style="enable-background:new 0 0 512 512" xml:space="preserve"><g><g xmlns="http://www.w3.org/2000/svg"><path d="m214.74 358.695c3.46-1.285 6.572-3.361 9.089-6.061 4.69-5.032 7.267-11.674 7.199-18.553.154-10.481-6.39-21.041-16.28-24.621-1.3-.453-2.721.234-3.174 1.534-.093.266-.14.546-.139.828v44.512z" fill="#F4777C" data-original="#f4777c"></path><path d="m571.181 370.883v-72.496c0-1.735-1.9-3.29-2.716-3.879-3.111-2.031-6.765-3.069-10.479-2.977h-12.497c-1.377 0-2.493 1.116-2.493 2.493v81.235c0 1.377 1.116 2.493 2.493 2.493h12.496c7.933-.001 13.196-4.135 13.196-6.869z" fill="#F4777C" data-original="#f4777c"></path><path d="m586.816 260.896c-8.383-5.774-18.353-8.801-28.531-8.663h-20.179c-2.01-21.896-20.331-38.678-42.318-38.766h-50.245l-41.46-55.006c-3.549-4.724-8.275-8.435-13.707-10.762v-68.561c0-43.626-35.228-79.119-78.53-79.119h-233.317c-43.301 0-78.529 35.493-78.529 79.119v442.53c0 43.627 35.228 79.119 78.529 79.119h233.317c43.302 0 78.53-35.492 78.53-79.119v-65.867h105.413c21.982-.087 40.3-16.862 42.317-38.752h20.18c23.844 0 42.521-14.971 42.521-34.085v-96.661c-.001-9.741-5.095-18.997-13.991-25.407zm-48.518 16.265h19.986c4.952-.122 9.824 1.262 13.972 3.97 1.088.784 3.621 2.859 3.621 5.173v96.661c0 3.645-7.017 9.157-17.593 9.157h-19.986zm-165.203-106.222c3.812-2.002 8.513-.93 11.081 2.526l30.151 40.002h-122.061zm-7.648 350.729c0 29.881-24.046 54.191-53.601 54.191h-233.317c-29.556 0-53.601-24.31-53.601-54.191v-442.53c0-29.881 24.045-54.191 53.601-54.191h233.317c29.556 0 53.601 24.31 53.601 54.191v68.002c-1.355.495-2.678 1.076-3.959 1.739l-122.759 64.588h-41.742c-23.539.099-42.556 19.233-42.511 42.773v30.716c0 .02-.003.04-.003.06 0 6.884 5.58 12.464 12.464 12.464h16.304v69.201h-16.203c-.033 0-.064-.005-.096-.005-6.886 0-12.468 5.583-12.467 12.469 0 .02.003.04.003.06v31.822c-.046 23.54 18.972 42.674 42.511 42.773h168.459v65.868zm-157.07-221.583c15.518 3.046 26.138 18.583 25.916 33.995.091 9.172-3.346 18.027-9.599 24.737-4.397 4.756-10.178 8.011-16.525 9.305v-68.077c.069.013.139.026.208.04zm304.993 112.942c.061 9.778-7.804 17.761-17.582 17.845h-298.8c-9.778-.084-17.644-8.067-17.583-17.845v-19.418h23.08c15.334-.013 29.965-6.432 40.359-17.705 10.618-11.327 16.48-26.298 16.378-41.823 0-32.824-25.452-59.528-56.736-59.528h-23.08v-18.313c-.061-9.778 7.805-17.761 17.583-17.845h298.801c9.778.084 17.643 8.066 17.582 17.845z" fill="#000000" data-original="#000000"></path><path d="m394.069 208.025c1.377 0 2.493-1.116 2.493-2.493 0-.541-.176-1.068-.502-1.5l-19.603-26.008c-1.926-2.592-5.452-3.396-8.311-1.895l-51.691 27.197c-1.218.641-1.686 2.148-1.046 3.367.431.819 1.28 1.332 2.206 1.332z" fill="#F4777C" data-original="#f4777c"></path><path d="m194.546 62.258c6.884 0 12.464-5.58 12.464-12.464s-5.58-12.464-12.464-12.464h-.012c-6.884.003-12.461 5.587-12.458 12.47s5.586 12.461 12.47 12.458z" fill="#000000" data-original="#000000"></path><path d="m346.387 299.6c5.447 0 9.879 5.062 9.879 11.285 0 6.884 5.58 12.464 12.464 12.464s12.464-5.58 12.464-12.464c.133-14.767-8.706-28.139-22.344-33.803v-1.56c0-6.884-5.58-12.464-12.464-12.464s-12.464 5.58-12.464 12.464v1.562c-13.636 5.666-22.473 19.037-22.34 33.803 0 19.968 15.614 36.214 34.806 36.214 5.447 0 9.879 5.062 9.879 11.285 0 6.209-4.414 11.262-9.845 11.283l-.034-.002-.033.002c-5.431-.021-9.843-5.074-9.843-11.283 0-6.884-5.58-12.464-12.464-12.464s-12.464 5.58-12.464 12.464c-.133 14.766 8.704 28.137 22.34 33.803v1.563c0 6.884 5.58 12.464 12.464 12.464s12.464-5.58 12.464-12.464v-1.562c13.638-5.665 22.477-19.036 22.344-33.803 0-19.968-15.614-36.213-34.807-36.213-5.447 0-9.878-5.062-9.878-11.286s4.429-11.288 9.876-11.288z" fill="#000000" data-original="#000000"></path></g></g></svg>