<svg xmlns="http://www.w3.org/2000/svg" version="1.1" xmlns:xlink="http://www.w3.org/1999/xlink" xmlns:svgjs="http://svgjs.com/svgjs" width="512" height="512" x="0" y="0" viewBox="0 0 600.771 600.771" style="enable-background:new 0 0 512 512" xml:space="preserve" class=""><g><g xmlns="http://www.w3.org/2000/svg"><path d="m184.825 473.59c-10.095 0-19.875-4.546-25.524-11.865-4.775-6.099-6.376-14.1-4.317-21.567.142-.533.216-1.081.219-1.633v-.049c-.051-.851-.781-1.5-1.632-1.449-.595.035-1.117.411-1.34.964-14.658 35.585-38.416 49.932-65.88 63.588-.766.379-1.079 1.307-.7 2.073.26.525.793.858 1.379.861 2.674.003 5.339-.006 7.994-.027h1.457c.144 0 .287.017.426.053 5.142 1.105 8.414 6.169 7.309 11.311-.073.338-.163.671-.272.999-3.103 9.097-6.786 17.986-11.027 26.612.514-.219 1.027-.437 1.54-.654 40.866-17.368 74.798-31.79 98.204-67.419.474-.71.284-1.669-.426-2.144-.333-.222-.739-.307-1.133-.236-2.069.39-4.171.585-6.277.582z" fill="#F4777C" data-original="#f4777c"></path><path d="m448.56 438.032c-.322-.791-1.225-1.171-2.017-.849-.573.233-.952.786-.963 1.404.004.533.075 1.063.212 1.578.564 2.143.853 4.349.858 6.566 0 10.864-7.423 20.589-18.912 24.777-5.753 2.141-11.98 2.676-18.014 1.548-.839-.162-1.65.387-1.812 1.225-.077.399.006.812.231 1.151 23.405 35.596 57.324 50.011 98.174 67.372.512.217 1.026.436 1.54.655-4.452-9.055-8.289-18.399-11.485-27.97-.047-.141-.077-.286-.087-.434-.575-5.231 3.198-9.937 8.429-10.513.32-.035.642-.054.965-.057h.071c2.654.021 5.319.03 7.995.028.854-.005 1.543-.701 1.539-1.556-.003-.585-.336-1.118-.861-1.378-27.454-13.652-51.204-27.989-65.863-63.547z" fill="#F4777C" data-original="#f4777c"></path><path d="m594.515 510.014c-13.966-8.024-27.253-14.5-40.102-20.763-38.849-18.936-68.247-33.272-86.444-74.82 5.061 1.955 10.438 2.965 15.864 2.979 7.956.006 15.756-2.21 22.52-6.398 11.187-6.915 17.866-18.125 17.866-29.989-.106-8.244-3.227-16.165-8.774-22.265-2.568-2.946-3.145-6.036-1.713-9.187 1.807-3.974 7.018-7.984 14.584-7.984.744 0 1.448.034 2.169.103 12.656 1.228 24.357-2.394 32.945-10.191 7.467-6.654 11.787-16.144 11.9-26.145 0-13.301-7.969-25.076-21.324-31.502-4.598-2.209-7.132-5.522-7.132-9.33 0-4.792 4.046-8.969 10.31-10.644 17.494-4.68 28.796-18.217 28.796-34.488 0-16.491-12.616-34.218-36.738-36.192-8.991-.73-13.843-6.384-13.843-11.333 0-3.529 2.436-6.096 4.485-7.634 12.571-9.445 17.5-23.945 12.861-37.84-5.145-15.415-20.91-26.182-38.336-26.182-4.327.012-8.632.624-12.791 1.818-5.614 1.716-11.706.723-16.484-2.687-2.892-2.187-4.551-5.004-4.551-7.732.027-1.41.411-2.79 1.117-4.011 5.73-10.157 5.552-22.61-.465-32.6-7.08-11.84-21.286-19.49-36.191-19.49-9.526-.023-18.783 3.159-26.283 9.033-6.191 4.816-14.401 4.309-19.789 1.675-2.583-1.263-6.916-4.149-6.916-9.286v-.177c.142-16.877-11.431-30.654-29.5-35.11-19.629-4.839-39.213 3.266-47.631 19.709-2.824 5.513-9.361 7.477-14.539 7.477s-11.716-1.964-14.539-7.475c-8.368-16.35-27.859-24.478-47.397-19.77-18.063 4.355-29.734 18.038-29.734 34.859v.249c0 .044 0 .089.001.133.022 2.457-.988 4.812-2.784 6.489-3.504 3.214-8.106 4.961-12.86 4.882-3.994.048-7.889-1.239-11.066-3.659-13.129-10.188-30.939-11.938-45.799-4.499-13.149 6.434-21.317 18.51-21.317 31.516.036 5.614 1.474 11.131 4.183 16.048 1.515 2.509 1.47 5.662-.116 8.127-2.112 3.533-7.306 7.098-14.148 7.098-1.912-.004-3.814-.272-5.652-.798-13.608-3.864-27.493-1.485-38.095 6.525-9.24 6.982-14.757 17.552-14.757 28.275 0 10.614 5.18 20.347 14.587 27.407 2.042 1.532 4.477 4.1 4.477 7.629 0 4.949-4.852 10.603-13.85 11.334-24.115 1.974-36.732 19.7-36.732 36.191 0 16.271 11.303 29.808 28.799 34.489 6.262 1.674 10.308 5.852 10.308 10.643 0 3.808-2.533 7.121-7.136 9.332-16.071 7.725-24.107 23.019-20.474 38.962 3.905 17.138 20.034 29.108 39.222 29.108 1.5 0 3.091-.077 4.773-.231 5.01-.645 10.061.836 13.929 4.084 2.147 1.782 3.455 4.378 3.609 7.164-.087 2.181-.975 4.253-2.494 5.819-9.069 10.403-11.243 23.737-5.816 35.666 6.253 13.745 21.324 22.979 37.504 22.979 5.4-.006 10.753-1.012 15.787-2.968-18.197 41.542-47.593 55.876-86.439 74.811-12.849 6.262-26.136 12.739-40.102 20.763-5.969 3.429-8.028 11.047-4.6 17.016 2.124 3.697 5.99 6.052 10.249 6.243 17.043.764 34.128 1.205 50.996 1.317-6.766 16.281-15.045 31.89-24.728 46.624-3.778 5.753-2.177 13.48 3.577 17.258 3.581 2.352 8.12 2.699 12.017.919 12.168-5.552 24.311-10.713 36.053-15.703 64.874-27.572 126.268-53.668 160.838-134.563 4.813 1.241 9.128 4.198 10.224 8.766 4.092 17.072 19.966 28.542 39.501 28.542s35.408-11.47 39.5-28.54c1.097-4.57 5.412-7.528 10.224-8.768 34.57 80.895 95.964 106.993 160.838 134.563 11.744 4.992 23.885 10.151 36.055 15.703 6.263 2.856 13.656.095 16.512-6.168 1.776-3.895 1.43-8.429-.919-12.009-9.682-14.734-17.961-30.343-24.727-46.623 16.867-.112 33.955-.553 50.995-1.317 6.877-.308 12.202-6.133 11.893-13.01-.189-4.256-2.544-8.123-6.241-10.246zm-74.572-.361h-.095c-6.884 0-12.464 5.58-12.464 12.464 0 1.367.225 2.725.666 4.019 4.137 12.13 9.048 23.982 14.702 35.482-.685-.291-1.37-.582-2.053-.872-56.132-23.856-102.45-43.539-133.722-94.264 9.468 2.973 19.659 2.693 28.95-.796 15.318-5.583 25.215-18.55 25.215-33.036-.007-2.955-.392-5.897-1.144-8.754-.709-2.667-.024-5.512 1.82-7.566 20.69 54.384 56.425 73.226 97.556 93.32-6.515.053-12.992.054-19.431.003zm-439.87 51.093c-.683.29-1.367.581-2.053.872 5.654-11.501 10.565-23.353 14.702-35.482 2.22-6.516-1.263-13.598-7.779-15.817-1.294-.441-2.652-.666-4.019-.666h-.096c-6.435.05-12.912.049-19.431-.004 41.124-20.091 76.86-38.939 97.55-93.306 1.317 1.482 2.068 3.381 2.122 5.363-.005.735-.103 1.467-.293 2.178-2.746 9.956-.611 20.624 5.756 28.756 7.532 9.758 20.572 15.82 34.032 15.82 4.495.016 8.966-.664 13.253-2.016-31.273 50.752-77.6 70.442-133.744 94.302zm235.573-108.666c-1.668 6.956-9.263 9.425-15.26 9.425s-13.592-2.469-15.26-9.428c-4.034-16.809-20.347-28.55-39.668-28.55-1.315 0-2.643.061-4.059.186l-.007.001h-.009c-10.867.825-20.96 5.94-28.052 14.216-3.194 3.696-7.884 5.754-12.766 5.603-5.726 0-11.472-2.461-14.299-6.122-1.638-2.024-2.153-4.734-1.372-7.218.728-2.77 1.099-5.621 1.104-8.485 0-11.314-5.833-21.75-16.003-28.632l-.032-.02c-13.156-8.807-30.034-9.847-44.173-2.724-2.717 1.393-5.724 2.129-8.778 2.148-7.225 0-12.921-4.213-14.813-8.373-.868-1.908-1.614-4.914 1.908-8.955 5.506-6.093 8.58-13.997 8.639-22.209-.152-9.814-4.426-19.112-11.776-25.617-9.054-7.964-21.039-11.757-33.027-10.451-.876.08-1.695.122-2.435.122-8.775 0-13.814-4.881-14.917-9.718-1.007-4.421 1.468-8.312 6.965-10.955 13.317-6.395 21.269-18.284 21.269-31.801 0-16.166-11.573-30.121-28.796-34.725-6.553-1.753-10.311-5.546-10.311-10.408 0-5.084 4.278-10.564 13.829-11.345 20.952-1.702 36.753-17.256 36.753-36.18 0-10.634-5.266-20.683-14.444-27.568-3.066-2.301-4.62-4.813-4.62-7.468 0-2.909 1.861-6.122 4.857-8.385 2.534-1.914 8.014-4.774 16.259-2.434 4.053 1.154 8.246 1.741 12.46 1.745 14.832 0 28.452-7.371 35.545-19.237 6.105-9.984 6.365-22.48.68-32.709-.75-1.297-1.168-2.758-1.217-4.255 0-3.359 2.883-6.941 7.345-9.125 6.319-3.196 13.908-2.502 19.542 1.788 7.541 5.843 16.827 8.981 26.367 8.907 11.418.121 22.417-4.295 30.581-12.278 6.446-6.406 10.046-15.135 9.99-24.223v-.18c0-7.477 8.15-10.023 10.647-10.625 6.788-1.637 15.746-.179 19.367 6.895 6.647 12.98 20.72 21.042 36.727 21.042s30.081-8.063 36.728-21.043c3.646-7.119 12.656-8.548 19.475-6.868 2.493.615 10.618 3.203 10.541 10.719-.001.043-.001.085-.001.128v.237c0 13.439 7.811 25.282 20.893 31.68 14.938 7.381 32.766 5.682 46.04-4.389 3.124-2.474 6.998-3.809 10.983-3.784 6.123 0 12.207 3.025 14.797 7.356 1.53 2.559 1.498 5.029-.09 7.987-2.67 4.85-4.079 10.293-4.096 15.829 0 10.61 5.266 20.676 14.446 27.616 11.021 8.108 25.191 10.616 38.326 6.783 1.945-.565 3.959-.858 5.984-.87 7.641 0 13.174 4.602 14.69 9.147 1.234 3.695-.136 6.971-4.182 10.01-9.181 6.888-14.447 16.936-14.447 27.57 0 18.924 15.8 34.478 36.746 36.179 9.557.782 13.836 6.262 13.836 11.346 0 4.861-3.757 8.654-10.307 10.408-17.225 4.605-28.799 18.56-28.799 34.725 0 13.518 7.951 25.406 21.26 31.797 3.283 1.579 7.196 4.429 7.196 9.035-.113 2.972-1.465 5.761-3.728 7.69-3.318 3.013-8.211 4.38-13.777 3.835-1.501-.146-3.041-.22-4.58-.22-16.403 0-31.035 8.869-37.276 22.594-5.512 12.122-3.411 25.539 5.609 35.879 1.565 1.579 2.503 3.672 2.641 5.891 0 3.113-2.316 6.479-6.046 8.784-5.586 3.347-12.512 3.542-18.277.515-8.62-4.348-18.442-5.706-27.918-3.861-.198.032-.394.069-.59.11-5.594 1.114-10.914 3.317-15.659 6.483-.036.024-.065.055-.101.08-.058.04-.121.072-.178.112-12.706 8.736-18.318 22.863-14.645 36.939.216.803.33 1.631.337 2.462 0 4.718-4.558 8.06-8.823 9.615-5.757 2.097-14.435 2.224-19.957-4.344-7.091-8.271-17.181-13.383-28.045-14.207h-.007l-.007-.001c-1.416-.125-2.744-.186-4.059-.186-19.328.003-35.639 11.744-39.673 28.557z" fill="#000000" data-original="#000000" class=""></path><path d="m493.115 243.356c0-91.211-86.458-165.417-192.729-165.417s-192.73 74.206-192.73 165.417 86.458 165.417 192.73 165.417 192.729-74.206 192.729-165.417zm-192.729 140.489c-92.526 0-167.802-63.023-167.802-140.489s75.275-140.488 167.802-140.488 167.801 63.023 167.801 140.488-75.275 140.489-167.801 140.489z" fill="#000000" data-original="#000000" class=""></path><ellipse cx="359.655" cy="198.539" fill="#F4777C" rx="17.434" ry="22.214" data-original="#f4777c"></ellipse><path d="m359.655 143.992c-26.563 0-48.174 24.47-48.174 54.547 0 25.5 15.537 46.963 36.454 52.906v78.812c0 6.884 5.58 12.464 12.464 12.464s12.464-5.58 12.464-12.464v-79.273c20.16-6.519 34.966-27.555 34.966-52.445 0-30.077-21.611-54.547-48.174-54.547zm0 84.165c-12.818 0-23.245-13.287-23.245-29.619s10.428-29.619 23.245-29.619 23.245 13.287 23.245 29.619-10.427 29.619-23.245 29.619z" fill="#000000" data-original="#000000" class=""></path><path d="m259.734 153.286c-5.426 4.236-6.391 12.069-2.154 17.495 4.504 5.996 6.89 13.317 6.784 20.815 0 10.491-4.307 19.718-10.781 24.982v-53.288c0-6.884-5.58-12.464-12.464-12.464s-12.464 5.58-12.464 12.464v53.287c-6.475-5.263-10.781-14.491-10.781-24.982-.099-7.41 2.229-14.649 6.628-20.613 4.149-5.493 3.059-13.309-2.434-17.458-5.439-4.108-13.17-3.085-17.353 2.297-7.727 10.319-11.861 22.884-11.77 35.775 0 25.197 15.17 46.449 35.71 52.686v85.766c0 6.884 5.58 12.464 12.464 12.464s12.464-5.58 12.464-12.464v-85.766c20.54-6.236 35.71-27.488 35.71-52.686.1-13.056-4.144-25.774-12.063-36.155-4.238-5.426-12.07-6.39-17.496-2.155z" fill="#000000" data-original="#000000" class=""></path></g></g></svg>