<svg xmlns="http://www.w3.org/2000/svg" version="1.1" xmlns:xlink="http://www.w3.org/1999/xlink" xmlns:svgjs="http://svgjs.com/svgjs" width="512" height="512" x="0" y="0" viewBox="0 0 600.768 600.768" style="enable-background:new 0 0 512 512" xml:space="preserve"><g><g xmlns="http://www.w3.org/2000/svg"><path d="m561.137 8.987c-1.546-5.325-6.424-8.987-11.968-8.987h-497.57c-5.544 0-10.422 3.662-11.969 8.987-9.638 33.179-9.693 68.891-.169 109.178v470.139c0 6.884 5.58 12.464 12.464 12.464h394.288c3.303-.014 6.468-1.325 8.814-3.65l100.831-100.831c3.322-2.329 5.299-6.131 5.299-10.188v-367.396c.047-.167.101-.33.141-.5 9.533-40.303 9.481-76.028-.161-109.216zm-499.888 15.941h478.27c5.389 23.828 5.262 49.49-.389 77.938h-477.492c-5.651-28.447-5.779-54.109-.389-77.938zm3.141 102.87h471.839v345.836h-90.015c-6.884 0-12.464 5.58-12.464 12.464v89.741h-369.361zm394.288 430.414v-59.65h59.65z" fill="#000000" data-original="#000000"></path><circle cx="300.343" cy="280.651" fill="#F4777C" r="87.37" data-original="#f4777c"></circle><path d="m300.343 402.656c67.382 0 122.006-54.624 122.006-122.005 0-67.382-54.624-122.006-122.005-122.006s-122.006 54.624-122.006 122.005c.075 67.351 54.654 121.93 122.005 122.006zm0-219.082c53.614 0 97.077 43.463 97.077 97.077s-43.463 97.077-97.077 97.077-97.077-43.463-97.078-97.077c.061-53.589 43.488-97.017 97.078-97.077z" fill="#000000" data-original="#000000"></path><path d="m300.343 336.37c-10.966 0-19.888-9.702-19.888-21.627 0-6.884-5.58-12.464-12.464-12.464s-12.464 5.58-12.464 12.464c0 21.178 13.688 39.085 32.352 44.709v1.538c0 6.884 5.58 12.464 12.464 12.464s12.464-5.58 12.464-12.464v-1.538c18.665-5.624 32.353-23.532 32.353-44.71 0-25.671-20.105-46.556-44.817-46.556-10.966 0-19.888-9.702-19.888-21.628s8.922-21.628 19.888-21.628 19.889 9.702 19.889 21.628c0 6.884 5.58 12.464 12.464 12.464s12.464-5.58 12.464-12.464c0-21.178-13.688-39.086-32.353-44.711v-1.537c0-6.884-5.58-12.464-12.464-12.464s-12.464 5.58-12.464 12.464v1.537c-18.665 5.624-32.352 23.532-32.352 44.711 0 25.671 20.105 46.556 44.816 46.556 10.967 0 19.889 9.702 19.889 21.628s-8.923 21.628-19.889 21.628z" fill="#000000" data-original="#000000"></path><path d="m409.884 425.334h-219.083c-6.884 0-12.464 5.58-12.464 12.464s5.58 12.464 12.464 12.464h219.083c6.884 0 12.464-5.58 12.464-12.464s-5.58-12.464-12.464-12.464z" fill="#000000" data-original="#000000"></path><path d="m409.884 472.697h-219.083c-6.884 0-12.464 5.58-12.464 12.464s5.58 12.464 12.464 12.464h219.083c6.884 0 12.464-5.58 12.464-12.464s-5.58-12.464-12.464-12.464z" fill="#000000" data-original="#000000"></path><path d="m409.884 520.061h-219.15c-6.884 0-12.464 5.58-12.464 12.464s5.58 12.464 12.464 12.464h219.15c6.884 0 12.464-5.58 12.464-12.464s-5.58-12.464-12.464-12.464z" fill="#000000" data-original="#000000"></path></g></g></svg>