<svg xmlns="http://www.w3.org/2000/svg" version="1.1" xmlns:xlink="http://www.w3.org/1999/xlink" xmlns:svgjs="http://svgjs.com/svgjs" width="512" height="512" x="0" y="0" viewBox="0 0 600.768 600.768" style="enable-background:new 0 0 512 512" xml:space="preserve"><g><g xmlns="http://www.w3.org/2000/svg"><path d="m518.925 20.344h-45.919v-7.88c0-6.884-5.58-12.464-12.464-12.464s-12.464 5.58-12.464 12.464v7.88h-295.872v-7.88c0-6.884-5.58-12.464-12.464-12.464s-12.464 5.58-12.464 12.464v7.88h-45.436c-45.128 0-81.842 38.38-81.842 85.555v409.314c0 47.175 36.714 85.555 81.842 85.555h437.083c45.129 0 81.843-38.381 81.843-85.555v-409.314c0-47.175-36.714-85.555-81.843-85.555zm-493.997 85.555c0-33.43 25.532-60.627 56.914-60.627h45.435v15.188c0 6.884 5.58 12.464 12.464 12.464s12.464-5.58 12.464-12.464v-15.188h295.872v15.188c0 6.884 5.58 12.464 12.464 12.464s12.464-5.58 12.464-12.464v-15.188h45.919c31.383 0 56.915 27.197 56.915 60.627v3.97h-550.911zm550.912 409.314c0 33.431-25.532 60.627-56.915 60.627h-437.083c-31.382 0-56.914-27.197-56.914-60.627v-380.416h550.912z" fill="#000000" data-original="#000000"></path><path d="m117.748 398.261c6.172 1.834 11.028 6.617 12.955 12.76 2.112 6.287.959 13.213-3.076 18.477-12.359 15.821-12.517 37.98-.385 53.975 11.37 16.001 32.088 22.341 50.465 15.443 5.921-2.177 12.539-1.238 17.62 2.5 5.378 3.86 8.46 10.162 8.205 16.778-.559 20.476 11.568 37.715 30.895 43.918 19.089 6.131 38.718-.719 50.01-17.444 5.835-8.807 17.704-11.217 26.511-5.382 2.136 1.415 3.967 3.246 5.382 5.382 7.961 12.215 21.536 19.603 36.117 19.656 4.718-.011 9.406-.758 13.894-2.213 19.327-6.203 31.453-23.442 30.895-43.918-.255-6.615 2.827-12.917 8.205-16.778 5.081-3.739 11.699-4.678 17.62-2.5 18.378 6.896 39.095.556 50.466-15.443 12.132-15.996 11.973-38.155-.386-53.975-4.036-5.264-5.188-12.19-3.075-18.477 1.926-6.144 6.782-10.927 12.955-12.76 19.284-5.764 31.745-22.62 31.745-42.942s-12.46-37.178-31.745-42.943c-6.172-1.833-11.028-6.616-12.955-12.759-2.114-6.287-.961-13.214 3.075-18.478 12.359-15.82 12.518-37.979.386-53.974-11.37-16.001-32.089-22.341-50.466-15.443-5.921 2.177-12.539 1.238-17.62-2.501-5.378-3.861-8.46-10.162-8.205-16.778.559-20.476-11.568-37.715-30.895-43.918-19.087-6.129-38.718.72-50.011 17.444v-.001c-5.836 8.807-17.706 11.216-26.513 5.381-2.136-1.415-3.965-3.245-5.38-5.38-11.292-16.723-30.923-23.573-50.01-17.444-19.327 6.203-31.453 23.443-30.895 43.919.255 6.615-2.827 12.917-8.205 16.777-5.081 3.739-11.699 4.679-17.62 2.501-18.377-6.898-39.096-.558-50.466 15.443-12.132 15.995-11.973 38.154.386 53.974 4.035 5.264 5.188 12.19 3.075 18.477-1.927 6.144-6.783 10.927-12.955 12.76-19.285 5.765-31.746 22.621-31.746 42.943.001 20.322 12.462 37.178 31.747 42.943zm7.139-62.001c13.981-4.215 25.007-15.014 29.512-28.904 4.602-14.062 2.02-29.486-6.912-41.282-5.595-7.052-5.663-17.01-.164-24.138 4.124-5.608 12.048-10.327 21.92-6.765 13.677 4.935 28.91 2.784 40.686-5.744 12.025-8.716 18.959-22.816 18.522-37.661-.521-8.862 5.1-16.925 13.594-19.503 8.144-2.775 17.128.391 21.733 7.659 13.54 20.217 40.906 25.63 61.124 12.09 4.781-3.202 8.888-7.309 12.09-12.09 4.605-7.266 13.589-10.432 21.732-7.659 8.495 2.577 14.116 10.641 13.595 19.503-.437 14.845 6.497 28.945 18.522 37.661 11.776 8.529 27.009 10.68 40.686 5.744 9.874-3.561 17.795 1.158 21.919 6.765 5.499 7.128 5.432 17.086-.163 24.138-8.932 11.796-11.514 27.221-6.911 41.284 4.504 13.89 15.531 24.689 29.511 28.903 10.29 3.075 13.956 11.861 13.956 19.058s-3.666 15.983-13.956 19.059c-13.98 4.215-25.007 15.015-29.511 28.904-4.603 14.062-2.021 29.487 6.911 41.282 5.595 7.053 5.662 17.011.163 24.139-4.123 5.605-12.05 10.328-21.919 6.764-13.677-4.933-28.909-2.783-40.686 5.744-12.024 8.716-18.959 22.816-18.522 37.661.521 8.862-5.1 16.926-13.595 19.503-8.143 2.777-17.129-.389-21.732-7.657-13.538-20.217-40.902-25.632-61.119-12.094-4.783 3.203-8.892 7.312-12.095 12.094-4.604 7.268-13.589 10.434-21.732 7.657-8.495-2.577-14.116-10.641-13.595-19.503.437-14.845-6.497-28.945-18.522-37.661-11.777-8.526-27.009-10.676-40.686-5.744-9.874 3.564-17.796-1.158-21.919-6.764-5.499-7.128-5.431-17.086.164-24.139 8.932-11.796 11.514-27.221 6.912-41.282-4.505-13.89-15.531-24.69-29.512-28.904-10.29-3.076-13.956-11.862-13.956-19.059s3.664-15.984 13.955-19.059z" fill="#000000" data-original="#000000"></path><path d="m375.131 330.567c1.383-.004 2.501-1.128 2.497-2.511 0-.144-.013-.288-.038-.43-6.317-36.356-37.617-64.06-75.161-64.06s-68.845 27.704-75.161 64.06c-.241 1.362.668 2.661 2.03 2.902.142.025.285.038.429.038h145.404z" fill="#F4777C" data-original="#f4777c"></path><path d="m200.173 361.407h204.513c6.884 0 12.464-5.581 12.464-12.464 0-64.082-51.463-116.216-114.721-116.216s-114.72 52.134-114.72 116.216c0 6.883 5.58 12.464 12.464 12.464zm102.256-103.753c45.354 0 82.962 34.363 88.959 78.824h-177.918c5.997-44.46 43.606-78.824 88.959-78.824z" fill="#000000" data-original="#000000"></path><path d="m196.082 395.969h208.603c6.884 0 12.464-5.58 12.464-12.464s-5.58-12.464-12.464-12.464h-208.603c-6.884 0-12.464 5.58-12.464 12.464s5.58 12.464 12.464 12.464z" fill="#000000" data-original="#000000"></path><path d="m248.743 447.46h103.282c8.034 0 15.095-2.588 19.059-6.47.959-.984.938-2.559-.046-3.518-.468-.456-1.096-.709-1.75-.706h-137.809c-1.374-.008-2.494 1.1-2.501 2.474-.004.653.25 1.281.705 1.749 3.964 3.883 11.025 6.471 19.06 6.471z" fill="#F4777C" data-original="#f4777c"></path><path d="m236.361 477.911h128.044c29.116-.033 52.71-23.628 52.743-52.743v-6.387c0-6.884-5.58-12.464-12.464-12.464h-208.602c-6.884 0-12.464 5.58-12.464 12.464v6.387c.033 29.115 23.628 52.71 52.743 52.743zm128.045-24.929h-128.045c-13.015-.016-24.285-9.04-27.147-21.737h182.338c-2.861 12.697-14.131 21.721-27.146 21.737z" fill="#000000" data-original="#000000"></path></g></g></svg>