<svg xmlns="http://www.w3.org/2000/svg" version="1.1" xmlns:xlink="http://www.w3.org/1999/xlink" xmlns:svgjs="http://svgjs.com/svgjs" width="512" height="512" x="0" y="0" viewBox="0 0 603.418 603.418" style="enable-background:new 0 0 512 512" xml:space="preserve"><g><g xmlns="http://www.w3.org/2000/svg"><path d="m472.03 539.851c-14.334 10.345-32.157 14.583-49.732 11.841-1.371-.249-2.617.748-2.867 2.119-.125.873.125 1.745.872 2.244 1.122.997 2.493 1.994 3.739 2.991 11.218 8.102 26.299 12.464 42.502 12.464s31.285-4.487 42.502-12.464c7.852-5.733 13.087-12.589 15.082-19.943.374-1.122-.249-2.368-1.246-2.867-16.326-8.475-36.019-6.979-50.852 3.615z" fill="#F4777C" data-original="#f4777c"></path><path d="m464.552 480.522c-16.203 0-31.285 4.487-42.502 12.464-7.852 5.733-13.087 12.589-15.082 19.943-.374 1.122.249 2.368 1.246 2.867 16.328 8.476 35.896 6.98 50.853-3.739 14.334-10.345 32.282-14.583 49.732-11.841 1.371.249 2.617-.748 2.867-2.119.125-.872-.249-1.62-.872-2.244-1.122-.997-2.493-1.994-3.739-2.991-11.218-7.977-26.3-12.34-42.503-12.34z" fill="#F4777C" data-original="#f4777c"></path><path d="m568.378 526.265c0-.125 0-.125 0-.249 0-21.438-11.218-41.256-31.659-55.964-11.467-8.102-24.305-13.96-37.891-17.2l34.899-149.195c2.244-9.348 0-19.319-5.983-26.798-5.484-6.98-13.711-11.093-22.435-11.467l9.847-79.77c22.061-2.742 38.763-21.438 38.763-43.749v-24.18c0-24.305-19.693-43.998-43.998-43.998h-13.087l-27.047-41.381c-2.119-3.241-5.609-5.235-9.473-5.609l-327.68-26.672c-5.235-.374-10.221 2.493-12.339 7.354l-29.54 66.184h-11.717c-24.43 0-44.123 19.693-44.123 43.998v24.18c0 22.311 16.702 41.007 38.763 43.749l9.847 79.77c-8.849.374-17.076 4.612-22.435 11.467-5.983 7.603-8.226 17.45-5.983 26.798l41.256 176.367c1.87 8.226 7.852 14.957 15.954 17.824l8.226 66.06c2.742 22.56 20.94 39.636 42.253 39.636h263.49c4.612 0 9.223-.872 13.71-2.368 8.476 1.62 17.076 2.368 25.676 2.368 26.673 0 51.975-7.603 71.17-21.314 20.316-14.583 31.534-34.152 31.659-55.465-.123-.251-.123-.251-.123-.376zm-46.242 35.398c-14.957 10.719-35.149 16.702-56.587 16.702s-41.63-5.858-56.587-16.702c-4.736-3.365-8.974-7.354-12.589-11.966 26.299 7.354 54.343 2.244 76.529-13.586 20.566-14.832 47.987-16.203 70.048-3.739-2.118 10.845-9.347 21.065-20.814 29.291zm12.713-59.329c-26.299-7.354-54.343-2.243-76.529 13.586-20.566 14.832-47.987 16.203-70.048 3.739 1.994-10.844 9.223-21.064 20.69-29.291 14.957-10.719 35.149-16.702 56.587-16.702s41.63 5.858 56.587 16.702c4.861 3.366 9.099 7.355 12.713 11.966zm-426.146-237.066-9.847-79.396h391.122l-9.847 79.396zm30.786-239.684 312.723 25.302 14.708 22.685h-348.869zm-79.645 116.165v-24.18c0-10.594 8.6-19.07 19.07-19.07h19.693.125.125 390.873.249 19.943c10.594 0 19.07 8.6 19.07 19.07v24.18c0 10.594-8.6 19.07-19.07 19.07h-5.733s0 0-.125 0h-419.292s0 0-.125 0h-5.733c-10.47.125-19.07-8.476-19.07-19.07zm19.568 156.175c-.499-1.994 0-4.113 1.246-5.733.997-1.371 2.493-2.119 4.238-2.119h12.963.125 393.116.125.125 12.713c1.62 0 3.241.748 4.238 2.119 1.246 1.62 1.745 3.739 1.246 5.733l-35.398 151.064c-2.867-.125-5.609-.249-8.476-.249-26.673 0-51.975 7.603-71.17 21.314-1.745 1.246-3.49 2.617-5.11 3.989h-268.725zm65.811 262.742-7.603-61.697h231.458c-4.113 8.226-6.232 17.325-6.357 26.548v.374.249c0 19.693 9.597 38.14 27.047 52.349h-227.096c-8.725-.124-16.203-7.727-17.449-17.823z" fill="#000000" data-original="#000000"></path><ellipse cx="294.37" cy="382.108" fill="#F4777C" rx="28.045" ry="28.045" transform="matrix(.316 -.949 .949 .316 -161.22 540.531)" data-original="#f4777c"></ellipse><path d="m294.418 444.377c34.401 0 62.32-27.92 62.32-62.32s-27.919-62.32-62.32-62.32-62.32 27.919-62.32 62.32c-.001 34.4 27.919 62.32 62.32 62.32zm37.392-62.321c0 20.69-16.702 37.392-37.392 37.392s-37.392-16.702-37.392-37.392 16.702-37.392 37.392-37.392c20.69.125 37.392 16.827 37.392 37.392z" fill="#000000" data-original="#000000"></path></g></g></svg>