<svg xmlns="http://www.w3.org/2000/svg" version="1.1" xmlns:xlink="http://www.w3.org/1999/xlink" xmlns:svgjs="http://svgjs.com/svgjs" width="512" height="512" x="0" y="0" viewBox="0 0 600.769 600.769" style="enable-background:new 0 0 512 512" xml:space="preserve" class=""><g><g xmlns="http://www.w3.org/2000/svg"><path d="m66.55 280.048c3.939 5.459 5.132 6.564 7.092 6.564 1.965 0 3.16-1.105 7.104-6.566 4.562-6.319 11.457-15.869 25.293-15.869 13.83 0 20.722 9.549 25.282 15.867 3.943 5.463 5.138 6.568 7.103 6.568s3.16-1.105 7.103-6.568c3.157-4.373 7.429-10.294 14.347-13.525.769-.346 1.314-1.055 1.451-1.887 12.203-76.801 84.356-129.167 161.157-116.964 60.199 9.565 107.408 56.779 116.967 116.979.137.831.68 1.539 1.448 1.886 6.903 3.234 11.171 9.145 14.324 13.512 3.944 5.462 5.139 6.567 7.105 6.567s3.159-1.105 7.103-6.566c4.563-6.319 11.458-15.869 25.293-15.869s20.73 9.549 25.292 15.868c3.944 5.462 5.139 6.567 7.105 6.567s3.161-1.105 7.105-6.568c2.774-3.842 6.421-8.894 11.98-12.254.816-.511 1.274-1.438 1.184-2.396-11.724-136.415-131.812-237.498-268.226-225.776-120.157 10.324-215.451 105.618-225.776 225.774-.09.958.368 1.886 1.184 2.397 5.559 3.362 9.206 8.415 11.98 12.259z" fill="#F4777C" data-original="#f4777c"></path><path d="m600.472 287.393v-.003c-7.171-165.734-147.338-294.274-313.072-287.103-155.686 6.736-280.366 131.415-287.103 287.102v.001c-.2 4.677-.297 8.928-.297 12.994 0 165.898 134.487 300.384 300.385 300.384 79.666 0 156.07-31.648 212.403-87.98 56.517-56.21 88.198-132.694 87.98-212.404 0-4.043-.097-8.293-.296-12.991zm-300.088-262.465c143.839-.361 263.602 110.296 274.593 253.716-7.011 3.689-11.454 9.845-14.774 14.443-4.382 6.07-5.71 7.298-7.895 7.298s-3.512-1.228-7.893-7.296c-5.069-7.021-12.729-17.632-28.103-17.632-15.373 0-23.034 10.611-28.104 17.632-4.382 6.068-5.71 7.296-7.893 7.296s-3.512-1.228-7.894-7.296c-3.71-5.138-8.808-12.199-17.3-15.616-12.722-85.46-92.314-144.425-177.774-131.702-68.093 10.137-121.557 63.596-131.7 131.688-8.511 3.412-13.614 10.484-17.328 15.63-4.381 6.07-5.709 7.298-7.892 7.298-2.184 0-3.511-1.228-7.892-7.298-5.066-7.021-12.724-17.631-28.091-17.631-15.373 0-23.034 10.611-28.103 17.632-4.382 6.068-5.71 7.296-7.893 7.296-2.178 0-3.502-1.227-7.88-7.293-3.319-4.599-7.763-10.757-14.777-14.448 10.991-143.421 130.754-254.078 274.593-253.717zm-131.019 264.33c1.58-18.612 7.158-36.664 16.353-52.922 18.019-31.865 48.354-54.915 83.883-63.736 25.241-6.16 51.751-4.602 76.097 4.473 29.345 11 53.888 31.967 69.335 59.234 11.049 19.548 16.853 41.623 16.846 64.078 0 72.623-58.873 131.496-131.496 131.496s-131.496-58.873-131.496-131.496c.001-3.629.162-7.371.478-11.127zm131.019 286.582c-147.314 0-267.983-116.242-275.116-261.818 4.986 5.732 12.058 11.29 23.18 11.29 15.373 0 23.034-10.61 28.104-17.632 4.381-6.068 5.709-7.296 7.892-7.296 2.176 0 3.501 1.226 7.878 7.292 5.069 7.023 12.729 17.637 28.105 17.637 11.775 0 19.017-6.224 24.044-12.294 6.455 80.367 73.913 143.79 155.912 143.79 81.99 0 149.442-63.408 155.91-143.762 5.026 6.061 12.265 12.266 24.022 12.266 15.373 0 23.033-10.61 28.103-17.632 4.382-6.068 5.71-7.296 7.893-7.296s3.51 1.228 7.892 7.296c5.071 7.022 12.731 17.632 28.104 17.632 11.129 0 18.204-5.56 23.193-11.294-7.131 145.577-127.802 261.821-275.116 261.821z" fill="#000000" data-original="#000000"></path></g></g></svg>