<svg xmlns="http://www.w3.org/2000/svg" version="1.1" xmlns:xlink="http://www.w3.org/1999/xlink" xmlns:svgjs="http://svgjs.com/svgjs" width="512" height="512" x="0" y="0" viewBox="0 0 600.768 600.768" style="enable-background:new 0 0 512 512" xml:space="preserve" class=""><g><g xmlns="http://www.w3.org/2000/svg"><path d="m588.304 171.997h-25.091v-44.868c0-6.884-5.58-12.464-12.464-12.464h-17.266v-11.331h4.259c6.884 0 12.464-5.58 12.464-12.464s-5.58-12.464-12.464-12.464h-13.949c-1.825-.423-3.723-.423-5.549 0h-13.948c-6.884 0-12.464 5.58-12.464 12.464s5.58 12.464 12.464 12.464h4.259v11.331h-17.268c-6.884 0-12.464 5.58-12.464 12.464v44.868h-12.627v-26.172c-.019-17.201-13.959-31.141-31.16-31.16h-45.427l-19.05-94.589c-2.344-11.633-12.302-20.076-23.679-20.076h-92.991c-11.378 0-21.337 8.444-23.68 20.077l-19.05 94.588h-45.427c-17.201.019-31.141 13.959-31.16 31.16v26.172h-12.626v-44.868c0-6.884-5.58-12.464-12.464-12.464h-17.268v-11.331h4.259c6.884 0 12.464-5.58 12.464-12.464s-5.58-12.464-12.464-12.464h-13.948c-1.825-.423-3.723-.423-5.549 0h-13.95c-6.884 0-12.464 5.58-12.464 12.464s5.58 12.464 12.464 12.464h4.26v11.331h-17.268c-6.884 0-12.464 5.58-12.464 12.464v44.868h-25.09c-6.884 0-12.464 5.58-12.464 12.464s5.58 12.464 12.464 12.464h122.107v26.173c.019 17.201 13.959 31.141 31.16 31.16h7.959v33.637h-26.652c-6.884 0-12.464 5.58-12.464 12.464v180.305c0 6.884 5.58 12.464 12.464 12.464h28.705v95.176c0 6.884 5.58 12.464 12.464 12.464h224.353c6.884 0 12.464-5.58 12.464-12.464v-95.176h28.705c6.884 0 12.464-5.581 12.464-12.464v-180.305c0-6.884-5.58-12.464-12.464-12.464h-26.652v-33.637h7.959c17.201-.019 31.141-13.959 31.16-31.16v-26.173h122.108c6.884 0 12.464-5.58 12.464-12.464s-5.58-12.464-12.464-12.464zm-525.822-32.404h34.534v32.404h-34.534zm339.666 179.74c.003.183-.03.365-.099.534l-95.546 25.767c-4.008 1.08-8.231 1.08-12.24 0l-95.546-25.767c-.07-.169-.104-.351-.1-.534v-65.075h203.53zm12.464-90.003h-248.881c-3.44-.004-6.228-2.792-6.232-6.232v-77.273c.004-3.44 2.792-6.228 6.232-6.232h269.305c3.44.004 6.228 2.792 6.232 6.232v77.273c-.004 3.44-2.792 6.228-6.232 6.232zm-159.95-204.402h91.443c.006.023.011.046.017.071l18.058 89.666h-127.593l18.059-89.665c.005-.026.01-.049.016-.072zm68.157 421.716c-5.348-.157-9.556-4.619-9.4-9.967.157-5.348 4.619-9.556 9.967-9.4 5.238.153 9.404 4.444 9.404 9.684-.087 5.425-4.546 9.756-9.971 9.683zm77.277 129.196h-87.248v-18.124h87.248zm0-86.106h-87.248v-18.124h87.248zm0 43.054h-87.248v-18.125h87.248zm-199.425 0v-18.125h87.248v18.125zm0-61.178h87.248v18.124h-87.248zm0 86.106h87.248v18.124h-87.248zm67.306-120.754c-.162-5.507 4.172-10.102 9.679-10.264s10.102 4.172 10.264 9.678c.162 5.507-4.172 10.102-9.679 10.264-.098.003-.195.004-.293.004-5.424.072-9.883-4.258-9.971-9.682zm173.288-124.139v155.377h-16.241v-9.054c0-6.884-5.58-12.464-12.464-12.464h-56.253c.935-3.156 1.41-6.429 1.411-9.721-.178-19.293-15.964-34.789-35.257-34.611-8.077.075-15.879 2.946-22.078 8.126-14.806-12.372-36.837-10.399-49.209 4.407-5.18 6.199-8.051 14-8.126 22.078 0 3.291.476 6.565 1.411 9.721h-56.253c-6.884 0-12.464 5.58-12.464 12.464v9.054h-16.241v-155.377h14.188v6.511c-.164 11.322 7.267 21.354 18.145 24.497l95.937 25.873c8.26 2.225 16.962 2.225 25.222 0l95.939-25.873c10.878-3.143 18.308-13.176 18.144-24.497v-6.51h14.189zm62.486-173.23h34.533v32.404h-34.533z" fill="#000000" data-original="#000000" class=""></path><g fill="#F4777C"><path d="m71.019 145.263h17.461c1.377 0 2.493 1.116 2.493 2.493v16.077c0 1.377-1.116 2.493-2.493 2.493h-17.461c-1.377 0-2.493-1.116-2.493-2.493v-16.077c0-1.376 1.116-2.493 2.493-2.493z" fill="#F4777C" data-original="#f4777c"></path><path d="m512.288 145.263h17.461c1.377 0 2.493 1.116 2.493 2.493v16.077c0 1.377-1.116 2.493-2.493 2.493h-17.461c-1.377 0-2.493-1.116-2.493-2.493v-16.077c0-1.376 1.116-2.493 2.493-2.493z" fill="#F4777C" data-original="#f4777c"></path><path d="m214.07 473.876h60.451c1.377 0 2.493 1.116 2.493 2.493v8.607c0 1.377-1.116 2.493-2.493 2.493h-60.451c-1.377 0-2.493-1.116-2.493-2.493v-8.607c.001-1.377 1.117-2.493 2.493-2.493z" fill="#F4777C" data-original="#f4777c"></path><path d="m326.247 473.876h60.451c1.377 0 2.493 1.116 2.493 2.493v8.607c0 1.377-1.116 2.493-2.493 2.493h-60.451c-1.377 0-2.493-1.116-2.493-2.493v-8.607c0-1.377 1.116-2.493 2.493-2.493z" fill="#F4777C" data-original="#f4777c"></path><path d="m326.247 516.928h60.451c1.377 0 2.493 1.116 2.493 2.493v8.608c0 1.377-1.116 2.493-2.493 2.493h-60.451c-1.377 0-2.493-1.116-2.493-2.493v-8.608c0-1.377 1.116-2.493 2.493-2.493z" fill="#F4777C" data-original="#f4777c"></path><path d="m214.07 516.928h60.451c1.377 0 2.493 1.116 2.493 2.493v8.608c0 1.377-1.116 2.493-2.493 2.493h-60.451c-1.377 0-2.493-1.116-2.493-2.493v-8.608c.001-1.377 1.117-2.493 2.493-2.493z" fill="#F4777C" data-original="#f4777c"></path><path d="m326.247 559.981h60.451c1.377 0 2.493 1.116 2.493 2.493v8.607c0 1.377-1.116 2.493-2.493 2.493h-60.451c-1.377 0-2.493-1.116-2.493-2.493v-8.607c0-1.377 1.116-2.493 2.493-2.493z" fill="#F4777C" data-original="#f4777c"></path><path d="m214.07 559.981h60.451c1.377 0 2.493 1.116 2.493 2.493v8.607c0 1.377-1.116 2.493-2.493 2.493h-60.451c-1.377 0-2.493-1.116-2.493-2.493v-8.607c.001-1.377 1.117-2.493 2.493-2.493z" fill="#F4777C" data-original="#f4777c"></path></g></g></g></svg>