<svg xmlns="http://www.w3.org/2000/svg" version="1.1" xmlns:xlink="http://www.w3.org/1999/xlink" xmlns:svgjs="http://svgjs.com/svgjs" width="512" height="512" x="0" y="0" viewBox="0 0 600.768 600.768" style="enable-background:new 0 0 512 512" xml:space="preserve"><g><g xmlns="http://www.w3.org/2000/svg"><path d="m125.791 382.577c-1.377 0-2.493 1.116-2.493 2.493 0 .585.205 1.15.58 1.599l17.51 20.944.03.036 6.362 7.61c.883 1.056 2.455 1.197 3.511.314.114-.095.219-.2.314-.314l6.358-7.605.039-.047 17.505-20.939c.883-1.056.743-2.628-.314-3.511-.448-.375-1.014-.58-1.599-.58z" fill="#F4777C" data-original="#f4777c"></path><path d="m507.13 269.889c1.381.001 2.501-1.118 2.502-2.498 0-.05-.001-.099-.004-.149-6.984-109.346-98.164-196.164-209.244-196.164s-202.26 86.817-209.244 196.163c-.081 1.378.97 2.562 2.348 2.643.05.003.099.004.149.004h413.493z" fill="#F4777C" data-original="#f4777c"></path><path d="m571.428 350.901h-5.525v-53.891c0-146.408-119.111-265.519-265.519-265.519s-265.519 119.111-265.519 265.519v53.891h-5.525c-16.196.018-29.322 13.144-29.34 29.341v21.363c.018 16.197 13.144 29.322 29.34 29.34h5.522v53.883c0 .02.003.04.003.06v47.382c.024 20.428 16.579 36.983 37.007 37.006h457.024c20.428-.024 36.982-16.578 37.006-37.006v-47.37c0-.025.004-.048.004-.072v-53.883h5.522c16.197-.018 29.323-13.144 29.341-29.34v-21.363c-.019-16.197-13.145-29.323-29.341-29.341zm-271.044-294.481c128.485 0 233.767 101.231 240.272 228.127h-480.544c6.504-126.896 111.788-228.127 240.272-228.127zm-240.591 253.054h481.181v41.427h-481.181zm101.416 101.044-.054.065-11.462 13.71-11.467-13.717-.041-.05-29.006-34.695h81.029zm-136.281-8.913v-21.363c.003-2.436 1.977-4.41 4.412-4.412h17.965l.024.001h29.358l25.236 30.187h-72.583c-2.435-.003-4.409-1.977-4.412-4.413zm516.046 130.666c-.007 6.667-5.41 12.07-12.078 12.078h-457.024c-6.668-.007-12.071-5.41-12.079-12.078v-34.974h481.181zm.004-59.907h-481.188v-41.419h62.973l16.255 19.444 1.123 1.34c4.423 5.275 12.286 5.966 17.561 1.543.558-.468 1.074-.984 1.543-1.543l17.376-20.784h364.356zm34.862-70.759c-.003 2.436-1.977 4.41-4.412 4.412h-373.966l25.237-30.186h330.739l.024-.001h17.965c2.436.003 4.41 1.977 4.412 4.412v21.363z" fill="#000000" data-original="#000000"></path><path d="m101.897 528.016c0 4.185 4.47 7.589 9.965 7.589h377.045c5.495 0 9.965-3.404 9.965-7.589v-19.481c0-1.377-1.116-2.493-2.493-2.493h-391.989c-1.377 0-2.493 1.116-2.493 2.493z" fill="#F4777C" data-original="#f4777c"></path><path d="m299.163 142.439c6.884 0 12.464-5.58 12.464-12.464s-5.58-12.464-12.464-12.464h-.012c-6.884.003-12.461 5.587-12.458 12.47.003 6.884 5.586 12.461 12.47 12.458z" fill="#000000" data-original="#000000"></path><path d="m199.45 142.439c6.884 0 12.464-5.58 12.464-12.464s-5.58-12.464-12.464-12.464h-.012c-6.884.003-12.461 5.587-12.458 12.47.003 6.884 5.586 12.461 12.47 12.458z" fill="#000000" data-original="#000000"></path><path d="m398.875 142.439c6.884 0 12.464-5.58 12.464-12.464s-5.58-12.464-12.464-12.464h-.012c-6.884.003-12.461 5.587-12.458 12.47.003 6.884 5.586 12.461 12.47 12.458z" fill="#000000" data-original="#000000"></path><path d="m249.306 223.455c6.884 0 12.464-5.58 12.464-12.464s-5.58-12.464-12.464-12.464h-.012c-6.884.003-12.461 5.587-12.458 12.47.003 6.884 5.587 12.462 12.47 12.458z" fill="#000000" data-original="#000000"></path><path d="m149.594 223.455c6.884 0 12.464-5.58 12.464-12.464s-5.58-12.464-12.464-12.464h-.012c-6.884.003-12.461 5.587-12.458 12.47.003 6.884 5.586 12.462 12.47 12.458z" fill="#000000" data-original="#000000"></path><path d="m349.019 223.455c6.884 0 12.464-5.58 12.464-12.464s-5.58-12.464-12.464-12.464h-.012c-6.884.003-12.461 5.587-12.458 12.47.003 6.884 5.586 12.462 12.47 12.458z" fill="#000000" data-original="#000000"></path><path d="m451.224 223.455c6.884 0 12.464-5.58 12.464-12.464s-5.58-12.464-12.464-12.464h-.012c-6.884.003-12.461 5.587-12.458 12.47.003 6.884 5.586 12.462 12.47 12.458z" fill="#000000" data-original="#000000"></path></g></g></svg>