<svg xmlns="http://www.w3.org/2000/svg" version="1.1" xmlns:xlink="http://www.w3.org/1999/xlink" xmlns:svgjs="http://svgjs.com/svgjs" width="512" height="512" x="0" y="0" viewBox="0 0 600.971 600.971" style="enable-background:new 0 0 512 512" xml:space="preserve"><g><g xmlns="http://www.w3.org/2000/svg"><path d="m57.468 356.824c-.041 24.045 7.459 47.497 21.445 67.055.809 1.11 2.364 1.355 3.475.546.107-.078.208-.164.301-.258l341.497-341.497c.975-.967.981-2.542.013-3.516-.093-.093-.193-.179-.299-.257-45.932-32.895-108.938-27.64-148.786 12.409l-183.81 183.809c-21.738 21.625-33.922 51.047-33.836 81.709z" fill="#F4777C" data-original="#f4777c"></path><path d="m509.666 325.857c40.05-39.848 45.305-102.854 12.41-148.786-.81-1.109-2.365-1.352-3.474-.542-.106.078-.206.163-.299.257l-341.497 341.498c-.975.968-.981 2.542-.013 3.517.093.094.194.18.301.258 19.541 13.974 42.97 21.474 66.994 21.445h.055c30.664.087 60.089-12.097 81.714-33.837z" fill="#F4777C" data-original="#f4777c"></path><path d="m565.331 122.894c11.77-19.955 11.667-44.754-.269-64.611-.189-.338-.396-.668-.618-.99-2.498-3.977-5.433-7.661-8.751-10.984l-1.029-1.028c-20.338-20.323-51.856-24.294-76.599-9.65-63.993-51.592-156.589-46.635-214.708 11.494l-216.247 216.246c-58.114 58.118-63.068 150.698-11.487 214.685-11.831 19.967-11.756 44.814.196 64.709.192.343.401.678.627 1.005 2.497 3.976 5.433 7.66 8.751 10.983l1.027 1.026c20.383 20.323 51.941 24.261 76.693 9.57 28.537 23.089 64.144 35.666 100.852 35.622h.077c42.688.119 83.65-16.844 113.756-47.109l216.245-216.247c58.135-58.124 63.087-150.729 11.484-214.721zm-341.556 453.149c-29.432.036-58.072-9.533-81.572-27.254l406.593-406.594c40.831 54.079 35.46 130-12.576 177.792l-216.245 216.247c-25.442 25.576-60.06 39.911-96.135 39.808h-.065zm313.262-513.136.045.044c-10.927 8.718-19.833 11.685-29.832 15.004-13.674 4.54-29.174 9.685-48.826 29.33-19.647 19.654-24.789 35.156-29.326 48.833-4.197 12.65-7.821 23.575-23.295 39.05-15.475 15.475-26.399 19.099-39.048 23.295-13.675 4.537-29.175 9.679-48.824 29.328s-24.791 35.149-29.328 48.825c-4.196 12.649-7.82 23.573-23.295 39.047-15.477 15.477-26.402 19.1-39.051 23.295-13.674 4.535-29.172 9.675-48.822 29.317-19.64 19.647-24.78 35.145-29.315 48.819-4.195 12.65-7.818 23.575-23.294 39.051-15.473 15.472-26.396 19.098-39.044 23.297-9.952 3.304-20.889 6.941-33.682 16.259-1.728-11.861 2.247-23.84 10.722-32.316l420.48-420.479c14.837-14.838 38.895-14.839 53.733-.002 0 .001.001.002.002.003zm-78.26-10.73-406.594 406.592c-40.657-54.119-35.305-129.904 12.554-177.772l216.247-216.246c47.793-48.035 123.714-53.405 177.793-12.574zm-394.929 485.971-.042-.042c10.926-8.718 19.832-11.686 29.83-15.005 13.673-4.539 29.171-9.685 48.816-29.328 19.652-19.652 24.792-35.154 29.328-48.831 4.194-12.648 7.817-23.57 23.281-39.039 15.472-15.467 26.395-19.089 39.042-23.284 13.677-4.537 29.179-9.677 48.831-29.328 19.649-19.649 24.792-35.149 29.328-48.824 4.197-12.649 7.82-23.573 23.295-39.048s26.399-19.098 39.046-23.295c13.675-4.537 29.176-9.68 48.825-29.328s24.792-35.151 29.328-48.828c4.197-12.651 7.822-23.577 23.292-39.054 15.479-15.472 26.403-19.099 39.054-23.298 9.953-3.304 20.891-6.94 33.685-16.259 1.728 11.861-2.247 23.841-10.722 32.316l-420.478 420.477c-14.85 14.817-38.891 14.816-53.739-.002z" fill="#000000" data-original="#000000"></path></g></g></svg>