<svg xmlns="http://www.w3.org/2000/svg" version="1.1" xmlns:xlink="http://www.w3.org/1999/xlink" xmlns:svgjs="http://svgjs.com/svgjs" width="512" height="512" x="0" y="0" viewBox="0 0 600.767 600.767" style="enable-background:new 0 0 512 512" xml:space="preserve"><g><g xmlns="http://www.w3.org/2000/svg"><path d="m548.581 57.833c-33.154-37.018-77.401-57.334-124.64-57.21-46.366.125-89.991 19.943-123.519 55.714-33.155-36.394-76.903-56.337-123.394-56.337-47.613 0-92.234 20.94-125.763 58.83-33.03 37.517-51.227 87.249-51.227 140.096s18.197 102.704 51.352 140.221l218.246 247.287c14.458 17.076 39.885 19.195 56.961 4.736 1.745-1.496 3.365-2.991 4.736-4.736l218.246-247.287c68.552-77.9 68.178-204.037-.998-281.314zm-17.823 264.737-218.121 247.412c-5.36 6.731-15.082 7.852-21.812 2.493-.872-.748-1.745-1.62-2.493-2.493l-218.246-247.412c-60.201-68.178-60.201-179.109 0-247.287 28.667-32.407 66.683-50.355 106.942-50.355s78.274 17.948 107.066 50.355c10.719 14.334 19.693 17.325 31.16 1.62 29.166-33.03 67.805-51.352 108.687-51.477h.499c39.76 0 77.277 17.325 105.446 48.859 61.198 68.304 61.572 179.608.872 248.285z" fill="#000000" data-original="#000000"></path><ellipse cx="374.957" cy="234.075" fill="#F4777C" rx="24.305" ry="37.392" data-original="#f4777c"></ellipse><path d="m374.957 159.291c-16.079 0-30.911 8.351-41.879 23.432-9.971 13.835-15.455 32.157-15.455 51.352s5.484 37.517 15.455 51.352c8.226 11.467 18.696 18.945 30.288 21.937v121.774c0 6.855 5.609 12.464 12.464 12.464s12.464-5.609 12.464-12.464v-122.273c10.844-3.241 20.69-10.594 28.418-21.438 9.971-13.835 15.455-32.157 15.455-51.352s-5.484-37.517-15.455-51.352c-10.844-15.206-25.676-23.432-41.755-23.432zm0 124.64c-17.574 0-32.407-22.809-32.407-49.856s14.832-49.856 32.407-49.856 32.407 22.809 32.407 49.856-14.957 49.856-32.407 49.856z" fill="#000000" data-original="#000000"></path><path d="m252.061 171.132c-5.733 3.739-7.354 11.592-3.49 17.325 6.357 9.473 9.722 22.061 9.722 35.273 0 19.693-7.852 37.143-18.945 45.245v-86.999c0-6.855-5.609-12.464-12.464-12.464s-12.464 5.609-12.464 12.464v88.246c-12.09-7.354-20.94-25.676-20.94-46.491 0-13.087 3.365-25.551 9.597-34.899 3.739-5.858 1.994-13.461-3.739-17.2-5.733-3.615-13.337-1.994-17.076 3.615-8.725 13.461-13.586 30.662-13.586 48.485 0 19.195 5.484 37.517 15.455 51.352 8.226 11.467 18.696 18.945 30.288 21.937v131.745c0 6.855 5.609 12.464 12.464 12.464s12.464-5.609 12.464-12.464v-132.246c10.844-3.241 20.69-10.594 28.418-21.438 9.971-13.835 15.455-32.157 15.455-51.352 0-18.073-4.986-35.523-13.96-49.108-3.737-5.734-11.465-7.23-17.199-3.49z" fill="#000000" data-original="#000000"></path></g></g></svg>