<svg xmlns="http://www.w3.org/2000/svg" version="1.1" xmlns:xlink="http://www.w3.org/1999/xlink" xmlns:svgjs="http://svgjs.com/svgjs" width="512" height="512" x="0" y="0" viewBox="0 0 605.754 605.754" style="enable-background:new 0 0 512 512" xml:space="preserve"><g><g xmlns="http://www.w3.org/2000/svg"><g fill="#F4777C"><path d="m278.572 73.099v153.067c-.004 1.147.775 2.149 1.888 2.426 14.734 3.542 30.099 3.542 44.833 0 1.113-.278 1.893-1.279 1.888-2.426v-169.271c0-1.377-1.116-2.493-2.493-2.493h-43.624c-1.377 0-2.493 1.116-2.493 2.493z" fill="#F4777C" data-original="#f4777c"></path><path d="m188.83 104.1v45.03c.018 1.005.624 1.907 1.549 2.302 4.088 1.867 5.776 6.605 5.421 11.019-.007.09-.01.181-.007.272.91 24.811 16.702 47.079 37.931 59.196 1.202.674 2.723.246 3.397-.956.21-.374.32-.796.319-1.225v-131.841c0-1.377-1.116-2.493-2.493-2.493h-43.624c-1.377 0-2.493 1.116-2.493 2.493z" fill="#F4777C" data-original="#f4777c"></path><path d="m368.313 219.723c-.002 1.379 1.115 2.498 2.493 2.5.431.001.855-.111 1.23-.323 18.885-10.84 33.619-29.525 37.081-51.277 1.455-6.489-.884-16.072 6.249-19.191.927-.379 1.539-1.274 1.557-2.276v-61.259c0-1.377-1.116-2.493-2.493-2.493h-43.624c-1.377 0-2.493 1.116-2.493 2.493z" fill="#F4777C" data-original="#f4777c"></path><path d="m101.582 105.899h43.624c1.377 0 2.493 1.116 2.493 2.493v32.135c0 1.377-1.116 2.493-2.493 2.493h-43.624c-1.377 0-2.493-1.116-2.493-2.493v-32.135c0-1.377 1.116-2.493 2.493-2.493z" fill="#F4777C" data-original="#f4777c"></path><path d="m460.547 106.183h43.624c1.377 0 2.493 1.116 2.493 2.493v31.893c0 1.377-1.116 2.493-2.493 2.493h-43.624c-1.377 0-2.493-1.116-2.493-2.493v-31.893c0-1.377 1.116-2.493 2.493-2.493z" fill="#F4777C" data-original="#f4777c"></path><ellipse cx="302.877" cy="432.503" rx="103.826" ry="79.458" fill="#F4777C" data-original="#f4777c"></ellipse></g><path d="m405.77 347.795c-27.612-21.732-64.153-33.7-102.893-33.7s-75.282 11.969-102.894 33.7c-28.491 22.423-44.182 52.507-44.182 84.708s15.691 62.285 44.182 84.708c27.612 21.732 64.154 33.7 102.894 33.7s75.281-11.969 102.893-33.7c28.492-22.423 44.183-52.507 44.183-84.708s-15.691-62.285-44.183-84.708zm-102.893 178.189c-67.353 0-122.148-41.935-122.148-93.48s54.795-93.48 122.148-93.48 122.148 41.935 122.148 93.48-54.796 93.48-122.148 93.48z" fill="#000000" data-original="#000000"></path><path d="m600.31 153.618c-2.368-2.798-5.848-4.411-9.514-4.411h-51.103v-61.634c0-6.884-5.58-12.464-12.464-12.464h-77.277v-25.253c0-6.884-5.58-12.464-12.464-12.464h-77.277v-24.928c0-6.884-5.58-12.464-12.464-12.464h-89.741c-6.884 0-12.464 5.58-12.464 12.464v24.928h-77.277c-6.884 0-12.464 5.58-12.464 12.464v24.928h-77.278c-6.884 0-12.464 5.58-12.464 12.464v61.959h-51.102c-6.884 0-12.464 5.58-12.464 12.464 0 .69.057 1.378.171 2.058l67.742 404.52c3.636 21.732 23.625 37.504 47.529 37.504h369.884c23.903 0 43.892-15.772 47.529-37.503l67.742-404.521c.605-3.615-.411-7.313-2.78-10.111zm-509.323-53.905h64.813v49.495h-64.813zm423.779 49.494h-64.813v-49.171h64.813zm-89.742-61.634v62.071c-12.029 3.162-8.336 17.066-10.408 26.302-4.915 30.883-26.871 57.128-54.406 71.046v-184.672h64.813v25.253zm-89.741-37.717v206.688c-21.245 5.573-43.568 5.573-64.813 0v-231.616h64.813zm-89.741 197.136c-30.826-15.428-54.329-46.706-55.536-81.761.598-6.631-2.27-13.866-9.277-15.588v-87.323h64.813zm265.219 317.142c-1.592 9.516-11.456 16.691-22.943 16.691h-369.883c-11.487 0-21.351-7.175-22.943-16.691l-65.31-389.999h136.034c2.566 21.616 11.111 42.088 24.674 59.114 16.469 20.612 38.552 36.016 63.583 44.353.082.028.164.055.247.081.045.014.089.029.134.043 31.485 10.567 65.559 10.567 97.044 0 .046-.014.091-.029.136-.044.082-.026.165-.053.247-.081 25.031-8.337 47.113-23.741 63.583-44.353 13.564-17.025 22.109-37.497 24.673-59.113h136.035z" fill="#000000" data-original="#000000"></path></g></g></svg>