<svg xmlns="http://www.w3.org/2000/svg" version="1.1" xmlns:xlink="http://www.w3.org/1999/xlink" xmlns:svgjs="http://svgjs.com/svgjs" width="512" height="512" x="0" y="0" viewBox="0 0 602.081 602.081" style="enable-background:new 0 0 512 512" xml:space="preserve"><g><g xmlns="http://www.w3.org/2000/svg"><ellipse cx="444.08" cy="485.834" fill="#F4777C" rx="86.068" ry="77.622" data-original="#f4777c"></ellipse><path d="m456.544 370.153v-249.184c0-6.884-5.58-12.464-12.464-12.464h-34.449v-96.04c0-6.884-5.58-12.464-12.464-12.464-1.242 0-2.477.186-3.664.551l-352.866 108.497c-5.235 1.628-8.806 6.467-8.82 11.949v364.836c0 6.884 5.58 12.464 12.464 12.464h274.341c6.772 58.26 60.451 103.784 125.458 103.784 69.579.001 126.184-52.147 126.184-116.247.001-60.226-49.97-109.897-113.72-115.682zm-12.464 207.001c-55.834 0-101.257-40.966-101.257-91.32s45.423-91.32 101.257-91.32 101.256 40.966 101.256 91.32-45.423 91.32-101.256 91.32zm-59.377-468.649h-257.475l257.476-79.168v79.168zm-327.958 24.928h374.871v236.72c-59.293 5.381-106.66 48.726-112.994 103.217h-261.877z" fill="#000000" data-original="#000000"></path><path d="m508.894 473.685h-52.004v-46.37c0-6.884-5.58-12.464-12.464-12.464s-12.464 5.58-12.464 12.464v58.834c0 6.884 5.581 12.464 12.464 12.464h64.467c6.884 0 12.464-5.58 12.464-12.464s-5.58-12.464-12.463-12.464z" fill="#000000" data-original="#000000"></path><path d="m305.466 237.538c9.945 0 18.347-11.794 18.347-25.755s-8.401-25.755-18.347-25.755-18.346 11.794-18.346 25.755 8.402 25.755 18.346 25.755z" fill="#F4777C" data-original="#f4777c"></path><path d="m293.772 269.358v88.922c0 6.884 5.58 12.464 12.464 12.464s12.464-5.58 12.464-12.464v-89.407c20.826-6.961 36.157-29.911 36.157-57.09 0-32.681-22.157-59.268-49.39-59.268s-49.389 26.588-49.389 59.268c-.001 27.845 16.088 51.254 37.694 57.575zm11.694-91.915c13.26 0 24.462 15.726 24.462 34.34s-11.202 34.34-24.462 34.34-24.461-15.726-24.461-34.34 11.202-34.34 24.461-34.34z" fill="#000000" data-original="#000000"></path><path d="m171.2 358.046c0 6.884 5.58 12.464 12.464 12.464s12.464-5.58 12.464-12.464v-96.896c20.826-6.961 36.156-29.91 36.156-57.09.137-13.949-4.103-27.589-12.122-39.003-4.044-5.571-11.838-6.809-17.409-2.765s-6.809 11.838-2.765 17.409c4.938 7.152 7.514 15.67 7.368 24.359 0 11.829-4.527 22.484-11.228 28.686v-60.045c0-6.884-5.58-12.464-12.464-12.464s-12.464 5.58-12.464 12.464v61.365c-7.538-5.928-12.766-17.291-12.766-30.005-.137-8.591 2.377-17.015 7.199-24.125 3.977-5.619 2.646-13.398-2.973-17.374-5.594-3.959-13.336-2.659-17.329 2.91-7.821 11.338-11.951 24.815-11.824 38.589 0 27.845 16.089 51.254 37.695 57.575v96.41z" fill="#000000" data-original="#000000"></path><path d="m177.663 391.828c-6.884 0-12.464 5.58-12.464 12.464s5.58 12.464 12.464 12.464h133.035c6.884 0 12.464-5.58 12.464-12.464s-5.58-12.464-12.464-12.464z" fill="#000000" data-original="#000000"></path><path d="m323.162 441.824c0-6.884-5.58-12.464-12.464-12.464h-133.035c-6.884 0-12.464 5.58-12.464 12.464s5.58 12.464 12.464 12.464h133.035c6.883 0 12.464-5.58 12.464-12.464z" fill="#000000" data-original="#000000"></path></g></g></svg>