<svg xmlns="http://www.w3.org/2000/svg" version="1.1" xmlns:xlink="http://www.w3.org/1999/xlink" xmlns:svgjs="http://svgjs.com/svgjs" width="512" height="512" x="0" y="0" viewBox="0 0 603.261 603.261" style="enable-background:new 0 0 512 512" xml:space="preserve"><g><g xmlns="http://www.w3.org/2000/svg"><path d="m507.727 337.148-48.509-33.292v-232.434c0-39.382-35.453-71.422-79.032-71.422h-235.094c-43.578 0-79.032 32.04-79.032 71.422v391.436c0 39.382 35.454 71.422 79.032 71.422h146.894l74.372 65.848c5.154 4.563 13.031 4.085 17.595-1.07 4.563-5.154 4.085-13.031-1.069-17.595l-53.291-47.183h50.594c14.738-.068 56.295-5.502 38.118-27.778l-96.747-85.672c-8.798-7.79-10.821-19.42-5.035-28.942 4.365-7.183 12.266-12.118 21.678-13.541 9.78-1.598 19.77 1.166 27.339 7.562l103.733 91.858c5.153 4.564 13.031 4.086 17.595-1.067s4.086-13.031-1.067-17.595l-26.58-23.537v-101.478l34.404 23.612c11.852 8.135 18.65 20.234 18.65 33.194v199.447c0 6.884 5.58 12.464 12.464 12.464s12.464-5.58 12.464-12.464v-199.447c-.002-20.991-11.02-41.083-29.476-53.748zm-125.662 30.099c-13.065-11.36-30.503-16.324-47.592-13.548-16.736 2.529-31.044 11.731-39.256 25.245-12.064 19.853-8.029 44.751 9.812 60.549l78.769 69.752c-1.197.067-2.4.109-3.612.109h-235.094c-29.833 0-54.104-20.858-54.104-46.495v-391.437c0-25.637 24.271-46.494 54.104-46.494h235.094c29.833 0 54.104 20.857 54.104 46.494v238.881.029 103.161z" fill="#000000" data-original="#000000"></path><path d="m356.949 229.602c1.384-.006 2.501-1.133 2.495-2.517-.001-.154-.016-.307-.044-.459-7.469-40.755-48.014-71.995-96.761-71.995s-89.293 31.24-96.761 71.995c-.259 1.36.633 2.672 1.993 2.931.151.029.305.044.458.044z" fill="#F4777C" data-original="#f4777c"></path><path d="m406.73 236.217h-4.564c-5.918-53.552-49.546-97.317-106.701-109.644 1.4-3.534 2.119-7.3 2.117-11.101 0-17.85-15.676-32.371-34.944-32.371s-34.945 14.522-34.945 32.371c-.001 3.801.717 7.568 2.117 11.101-57.154 12.328-100.783 56.092-106.7 109.644h-4.565c-6.884 0-12.464 5.58-12.464 12.464s5.58 12.464 12.464 12.464h288.185c6.884 0 12.464-5.58 12.464-12.464.001-6.883-5.58-12.464-12.464-12.464zm-144.091-128.188c5.429 0 10.016 3.409 10.016 7.443s-4.587 7.443-10.016 7.443-10.017-3.409-10.017-7.443 4.587-7.443 10.017-7.443zm0 39.988c58.737 0 107.352 38.554 114.406 88.2h-228.812c7.053-49.647 55.668-88.2 114.406-88.2z" fill="#000000" data-original="#000000"></path><path d="m262.639 119.194c2.715 0 5.008-1.704 5.008-3.722 0-2.017-2.293-3.722-5.008-3.722s-5.008 1.704-5.008 3.722c-.001 2.017 2.293 3.722 5.008 3.722z" fill="#F4777C" data-original="#f4777c"></path><path d="m275.008 296.748c0-6.884-5.58-12.464-12.464-12.464h-.012c-6.884.007-12.458 5.593-12.452 12.477.007 6.884 5.593 12.458 12.477 12.452 6.878-.008 12.451-5.586 12.451-12.465z" fill="#000000" data-original="#000000"></path><path d="m212.688 296.748c0-6.884-5.58-12.464-12.464-12.464h-.012c-6.884.007-12.458 5.593-12.452 12.477.007 6.884 5.593 12.458 12.477 12.452 6.878-.008 12.451-5.586 12.451-12.465z" fill="#000000" data-original="#000000"></path><path d="m324.864 284.284h-.012c-6.887.003-12.467 5.589-12.464 12.476s5.589 12.467 12.476 12.464 12.467-5.589 12.464-12.476c-.003-6.882-5.581-12.46-12.464-12.464z" fill="#000000" data-original="#000000"></path><path d="m135.411 355.329h-.012c-6.887.003-12.468 5.589-12.464 12.477.003 6.887 5.589 12.468 12.477 12.464 6.887-.003 12.468-5.589 12.464-12.477-.005-6.882-5.583-12.46-12.465-12.464z" fill="#000000" data-original="#000000"></path><path d="m262.992 354.791h-89.741c-6.884 0-12.464 5.58-12.464 12.464s5.58 12.464 12.464 12.464h89.741c6.884 0 12.464-5.58 12.464-12.464s-5.58-12.464-12.464-12.464z" fill="#000000" data-original="#000000"></path><path d="m135.411 426.253h-.012c-6.887.003-12.468 5.589-12.464 12.477s5.589 12.468 12.477 12.464c6.887-.003 12.468-5.589 12.464-12.477-.005-6.882-5.583-12.461-12.465-12.464z" fill="#000000" data-original="#000000"></path><path d="m262.992 425.835h-95.337c-6.884 0-12.464 5.58-12.464 12.464s5.58 12.464 12.464 12.464h95.337c6.884 0 12.464-5.58 12.464-12.464s-5.58-12.464-12.464-12.464z" fill="#000000" data-original="#000000"></path></g></g></svg>