<svg xmlns="http://www.w3.org/2000/svg" version="1.1" xmlns:xlink="http://www.w3.org/1999/xlink" xmlns:svgjs="http://svgjs.com/svgjs" width="512" height="512" x="0" y="0" viewBox="0 0 601.972 601.972" style="enable-background:new 0 0 512 512" xml:space="preserve"><g><g xmlns="http://www.w3.org/2000/svg"><g fill="#F4777C"><path d="m446.623 185.236h-25.091c0-7.47-12.574-18.318-32.269-18.318-19.703 0-32.269 10.848-32.269 18.318h-25.099c.006-4.552.909-9.059 2.657-13.262 3.646-8.839 10.832-16.463 20.278-21.907 2.074-1.192 4.216-2.261 6.417-3.2 1.645-.713 3.338-1.361 5.08-1.944 6.654-2.203 13.595-3.421 20.602-3.613.77-.033 1.556-.041 2.333-.041 31.679-.001 57.361 19.686 57.361 43.967z" fill="#F4777C" data-original="#f4777c"></path><path d="m356.042 122.496c-7.007.193-13.948 1.41-20.602 3.613-1.742.583-3.435 1.231-5.08 1.944-4.804-5.898-15.256-11.464-29.353-11.464s-24.548 5.566-29.352 11.464c-1.645-.713-3.338-1.361-5.08-1.944-6.655-2.203-13.596-3.421-20.603-3.613 6.985-18.245 28.981-31.548 55.036-31.548s48.05 13.303 55.034 31.548z" fill="#F4777C" data-original="#f4777c"></path><path d="m270.119 185.236h-25.099c0-7.47-12.566-18.318-32.269-18.318-19.695 0-32.269 10.848-32.269 18.318h-25.09c0-24.28 25.682-43.967 57.36-43.967.778 0 1.564.008 2.333.041 7.007.193 13.948 1.41 20.602 3.613 1.742.583 3.435 1.232 5.08 1.944 2.2.939 4.343 2.008 6.416 3.2 9.447 5.444 16.633 13.068 20.278 21.907 1.749 4.203 2.652 8.709 2.658 13.262z" fill="#F4777C" data-original="#f4777c"></path><ellipse cx="301.008" cy="393.27" rx="57.643" ry="36.287" fill="#F4777C" data-original="#f4777c"></ellipse></g><path d="m301.008 324.979c-56.717 0-101.146 29.997-101.146 68.291s44.429 68.291 101.146 68.291 101.146-29.997 101.146-68.291-44.429-68.291-101.146-68.291zm0 111.653c-41.314 0-76.218-19.857-76.218-43.362s34.904-43.363 76.218-43.363 76.218 19.857 76.218 43.363c-.001 23.505-34.904 43.362-76.218 43.362z" fill="#000000" data-original="#000000"></path><path d="m598.458 223.927-34.326-35.074c-2.391-2.678-5.804-4.219-9.394-4.244h-65.957c-3.32-17.225-13.515-32.977-29.535-45.257-17.779-13.629-40.93-21.468-65.592-22.302-13.389-25.176-41.767-42.874-75.467-47.404 2.417-3.327 3.693-7.347 3.635-11.459 0-13.716-12.377-19.373-19.771-22.753-.059-.027-.119-.054-.179-.082.059-.027.118-.054.176-.08 7.396-3.382 19.774-9.043 19.774-22.765-.001-6.884-5.582-12.465-12.467-12.464-5.872.001-10.947 4.099-12.184 9.84-1.393.846-3.782 1.939-5.491 2.721-7.392 3.38-19.764 9.038-19.764 22.75 0 13.716 12.377 19.373 19.771 22.753.062.029.125.058.189.087-.066.03-.132.06-.197.09-5.321 2.433-13.222 6.047-17.232 12.996-29.538 6.307-53.962 22.969-66.089 45.771-24.662.834-47.811 8.673-65.591 22.302-16.02 12.28-26.214 28.032-29.534 45.257h-65.956c-3.208.012-6.291 1.25-8.616 3.461-.208.199-.408.407-.603.621-.057.056-.119.105-.176.162l-34.326 35.073c-4.815 4.92-4.73 12.811.19 17.626s12.811 4.73 17.626-.19l17.616-17.999 56.793 343.776c2.788 19.802 19.633 34.59 39.629 34.791h331.195c19.997-.202 36.843-14.993 39.629-34.796l56.794-343.77 17.615 17.999c4.839 4.896 12.731 4.942 17.627.103 4.862-4.806 4.946-12.631.188-17.54zm-135.384-39.318h-15.099c-8.085-14.978-29.975-28.181-58.71-28.181s-50.624 13.204-58.709 28.181h-15.096c.345-1.07.724-2.134 1.158-3.187 4.443-10.769 13.64-20.591 25.891-27.651 2.785-1.599 5.661-3.032 8.615-4.292 2.194-.952 4.485-1.829 6.807-2.605 9.081-3.006 18.555-4.664 28.117-4.922l.152-.005c1.011-.043 2.044-.052 3.065-.052 35.898 0 66.025 18.274 73.809 42.714zm-53.774 0h-40.072c13.005-4.337 27.067-4.337 40.072 0zm-108.292-26.298c-5.909-8.421-13.287-15.708-21.78-21.513 14.047-5.237 29.511-5.237 43.559 0-8.494 5.805-15.871 13.092-21.779 21.513zm0-64.889c26.382 0 50.435 10.117 64.095 25.87-5.107.985-10.144 2.301-15.079 3.941-.304.102-.6.219-.904.324-10.228-8.365-26.613-15.614-48.113-15.614-21.499 0-37.885 7.248-48.113 15.614-.305-.105-.603-.223-.909-.326-4.934-1.639-9.969-2.955-15.074-3.939 13.661-15.753 37.714-25.87 64.097-25.87zm-88.258 48.473c1.021 0 2.054.009 3.064.052l.152.005c9.561.257 19.032 1.915 28.112 4.92 2.328.779 4.618 1.656 6.871 2.632 2.931 1.252 5.785 2.676 8.549 4.263 12.259 7.065 21.457 16.887 25.897 27.651.435 1.055.814 2.121 1.159 3.192h-15.094c-8.085-14.978-29.975-28.181-58.71-28.181s-50.625 13.204-58.71 28.181h-15.097c7.782-24.441 37.909-42.715 73.807-42.715zm20.038 42.714h-40.073c13.005-4.337 27.067-4.337 40.073 0zm286.279 24.928-89.875 71.539c-.498.397-.965.831-1.397 1.299-2.806 3.056-6.759 4.805-10.909 4.826h-231.757c-4.148-.021-8.1-1.769-10.906-4.825-.432-.469-.899-.903-1.398-1.3l-89.876-71.539zm-37.451 353.681c-.017.105-.033.209-.047.314-.956 7.58-7.325 13.313-14.963 13.471h-331.196c-7.639-.158-14.007-5.891-14.963-13.472-.015-.105-.031-.209-.048-.314l-55.546-336.224 91.769 73.046c7.487 7.704 17.765 12.062 28.508 12.089h231.757c10.742-.027 21.02-4.385 28.508-12.088l91.769-73.047z" fill="#000000" data-original="#000000"></path><path d="m156.659 79.171c-6.88 4.257-18.395 11.382-18.395 26.055.043 6.885 5.659 12.432 12.544 12.39 6.849-.042 12.382-5.602 12.39-12.452.732-1.177 4.379-3.434 6.578-4.794 6.88-4.257 18.395-11.382 18.395-26.055 0-14.667-11.514-21.787-18.393-26.042-2.2-1.361-5.846-3.616-6.58-4.794v-.125c.733-1.178 4.38-3.433 6.58-4.794 6.879-4.255 18.393-11.376 18.393-26.042-.043-6.885-5.659-12.432-12.544-12.39-6.847.042-12.378 5.599-12.39 12.445-.737 1.177-4.377 3.428-6.572 4.786-6.882 4.257-18.4 11.381-18.4 26.057s11.518 21.8 18.4 26.056c2.195 1.358 5.834 3.608 6.572 4.785v.119c-.733 1.178-4.379 3.434-6.578 4.795z" fill="#000000" data-original="#000000"></path><path d="m432.713 79.171c-6.88 4.257-18.394 11.382-18.394 26.055.043 6.885 5.66 12.432 12.546 12.388 6.848-.043 12.38-5.602 12.389-12.451.732-1.177 4.378-3.434 6.578-4.794 6.88-4.257 18.394-11.382 18.394-26.055 0-14.667-11.513-21.787-18.393-26.042-2.2-1.361-5.846-3.616-6.579-4.794v-.125c.733-1.178 4.38-3.433 6.579-4.794 6.88-4.255 18.393-11.376 18.393-26.042-.03-6.885-5.635-12.442-12.52-12.413-6.865.03-12.414 5.604-12.413 12.469-.738 1.177-4.377 3.428-6.573 4.786-6.882 4.257-18.4 11.381-18.4 26.057s11.518 21.8 18.4 26.056c2.195 1.358 5.834 3.608 6.572 4.785v.119c-.733 1.178-4.38 3.434-6.579 4.795z" fill="#000000" data-original="#000000"></path></g></g></svg>